<?xml version="1.0" encoding="utf-8"?>
<!-- Generator: Adobe Illustrator 23.0.0, SVG Export Plug-In . SVG Version: 6.00 Build 0)  -->
<svg version="1.1" id="Layer_1" xmlns="http://www.w3.org/2000/svg" xmlns:xlink="http://www.w3.org/1999/xlink" x="0px" y="0px"
	 viewBox="0 0 31 31" style="enable-background:new 0 0 31 31;" xml:space="preserve">
<style type="text/css">
	.st0{fill:#C4C4C4;}
</style>
<path id="Subtraction_234" class="st0" d="M15.5,31C6.9,31,0,24.1,0,15.5c0-4.1,1.6-8.1,4.5-11c6.1-6,15.9-6,21.9,0.1
	c6,6,6,15.8,0,21.8C23.6,29.4,19.6,31,15.5,31z M12.6,18.6c-0.6,0-1,0.4-1,1v1.1c0,0.6,0.4,1,1,1H23c0.6,0,1-0.4,1-1v-1.1
	c0-0.6-0.4-1-1-1H12.6z M8.5,18.6c-0.9,0-1.5,0.7-1.5,1.6c0,0.9,0.7,1.5,1.5,1.5c0.9,0,1.5-0.7,1.5-1.5C10.1,19.3,9.4,18.6,8.5,18.6
	z M12.6,14c-0.6,0-1,0.4-1,1v1.1c0,0.6,0.4,1,1,1H23c0.6,0,1-0.4,1-1V15c0-0.6-0.4-1-1-1H12.6z M8,14c-0.6,0-1,0.4-1,1v1.1
	c0,0.6,0.4,1,1,1h1.1c0.6,0,1-0.4,1-1V15c0-0.6-0.4-1-1-1H8z M12.6,9.3c-0.6,0-1,0.4-1,1v1.1c0,0.6,0.4,1,1,1H23c0.6,0,1-0.4,1-1
	v-1.1c0-0.6-0.4-1-1-1L12.6,9.3z M8,9.3c-0.6,0-1,0.4-1,1v1.1c0,0.6,0.4,1,1,1h1.1c0.6,0,1-0.4,1-1v-1.1c0-0.6-0.4-1-1-1L8,9.3z"/>
</svg>
