<?xml version="1.0" encoding="utf-8"?>
<!-- Generator: Adobe Illustrator 23.0.0, SVG Export Plug-In . SVG Version: 6.00 Build 0)  -->
<svg version="1.1" id="Layer_1" xmlns="http://www.w3.org/2000/svg" xmlns:xlink="http://www.w3.org/1999/xlink" x="0px" y="0px"
	 viewBox="0 0 31 31" style="enable-background:new 0 0 31 31;" xml:space="preserve">
<style type="text/css">
	.st0{fill:#C4C4C4;}
</style>
<path id="Union_129" class="st0" d="M4.5,26.5c-6.1-6.1-6.1-15.9,0-21.9s15.9-6.1,21.9,0c0,0,0,0,0,0c6.1,6.1,6.1,15.9,0,21.9
	S10.6,32.5,4.5,26.5z M7.7,22c0,0.8,0.7,1.5,1.5,1.5h12.3c0.8,0,1.5-0.7,1.5-1.5v-9.4H7.7L7.7,22z M7.7,10.3v1.4h15.3v-1.4
	c0-0.8-0.7-1.5-1.5-1.5h-0.8V8c0-0.3-0.2-0.5-0.4-0.5c-0.3,0-0.5,0.2-0.5,0.4c0,0,0,0,0,0v0.8h-0.9V8c0-0.3-0.2-0.5-0.5-0.5
	C18.2,7.5,18,7.7,18,8v0.8h-5.1V8c0-0.3-0.2-0.5-0.5-0.5c-0.3,0-0.5,0.2-0.5,0.5v0.8H11V8c0-0.3-0.2-0.5-0.5-0.5
	c-0.3,0-0.5,0.2-0.5,0.5v0.8H9.3C8.4,8.8,7.7,9.5,7.7,10.3C7.7,10.3,7.7,10.3,7.7,10.3L7.7,10.3z M14.4,20l-1.9-1.9
	c-0.2-0.2-0.2-0.5,0-0.8L13,17c0.2-0.2,0.5-0.2,0.8,0l1,1.1l2.4-2.4c0.2-0.2,0.5-0.2,0.8,0l0.4,0.4c0.2,0.2,0.2,0.5,0,0.8l-2.7,2.7
	c0,0,0,0-0.1,0.1L15.2,20C15,20.2,14.6,20.2,14.4,20L14.4,20z M19.8,9.6V8.8h0.9v0.8c0,0.3-0.2,0.5-0.4,0.5
	C20.1,10.1,19.8,9.9,19.8,9.6C19.8,9.6,19.8,9.6,19.8,9.6L19.8,9.6z M18,9.6V8.8h0.9v0.8c0,0.3-0.2,0.5-0.5,0.5
	C18.2,10.1,18,9.9,18,9.6L18,9.6z M11.9,9.6V8.8h0.9v0.8c0,0.3-0.2,0.5-0.5,0.5C12.1,10.1,11.9,9.9,11.9,9.6L11.9,9.6z M10.1,9.6
	V8.8H11v0.8c0,0.3-0.2,0.5-0.5,0.4C10.3,10.1,10.1,9.9,10.1,9.6L10.1,9.6z"/>
</svg>
