<svg xmlns="http://www.w3.org/2000/svg" width="31.004" height="30.998" viewBox="0 0 31.004 30.998">
  <path id="Subtraction_130" data-name="Subtraction 130" d="M-19481.5,31a15.4,15.4,0,0,1-10.959-4.539A15.384,15.384,0,0,1-19497,15.5a15.391,15.391,0,0,1,4.543-10.962A15.4,15.4,0,0,1-19481.5,0a15.4,15.4,0,0,1,10.961,4.54A15.4,15.4,0,0,1-19466,15.5a15.391,15.391,0,0,1-4.541,10.957A15.4,15.4,0,0,1-19481.5,31Zm-2.627-14.507-5.643,5.431a1.661,1.661,0,0,0,.7.157h15.336a1.712,1.712,0,0,0,.705-.157l-5.648-5.431-.8.773a2.753,2.753,0,0,1-1.928.771,2.753,2.753,0,0,1-1.928-.771Zm11.865-6.18-5.646,5.43,5.646,5.431a1.488,1.488,0,0,0,.166-.68V10.985A1.474,1.474,0,0,0-19472.262,10.311Zm-18.281,0a1.5,1.5,0,0,0-.166.674v9.507a1.514,1.514,0,0,0,.166.68l5.643-5.431Zm1.473-.906a1.659,1.659,0,0,0-.7.157l7.213,6.953a1.647,1.647,0,0,0,1.154.465,1.647,1.647,0,0,0,1.154-.465l7.219-6.953a1.714,1.714,0,0,0-.705-.157Z" transform="translate(19497.002)" fill="#c4c4c4"/>
</svg>
