<?xml version="1.0" encoding="utf-8"?>
<!-- Generator: Adobe Illustrator 23.0.0, SVG Export Plug-In . SVG Version: 6.00 Build 0)  -->
<svg version="1.1" id="Layer_1" xmlns="http://www.w3.org/2000/svg" xmlns:xlink="http://www.w3.org/1999/xlink" x="0px" y="0px"
	 viewBox="0 0 664 263" style="enable-background:new 0 0 664 263;" xml:space="preserve">
<style type="text/css">
	.st0{fill:#FFAA00;}
</style>
<path d="M62.1,151.6c-4.6-2.5-12.1-9.5-12.1-9.5v10.5H28.8V28.1h22.8v34.2v12.4c2.4-3.8,5.9-7.1,10.5-9.7c4.6-2.6,10-3.9,16-3.9
	c7.9,0,15.2,2,21.9,6.1c6.3,4,11.4,9.6,15.3,16.8c3.7,7.1,5.6,15.2,5.6,24.3c0,9.2-1.9,17.3-5.6,24.5c-3.7,7.1-8.8,12.7-15.3,16.7
	c-6.5,4-13.8,5.9-21.9,5.9C72.1,155.4,66.8,154.1,62.1,151.6z M86.1,131.1c3.8-2.3,6.9-5.3,9-9.2c2.2-3.8,3.2-8.4,3.2-13.6
	c0-5.2-1.1-9.7-3.2-13.6c-2.2-3.8-5.2-6.9-9-9.2c-3.6-2.2-7.6-3.2-11.9-3.2c-4.3,0-8.3,1.1-11.9,3.2c-3.6,2.2-6.6,5.2-8.8,9.2
	c-2.3,4-3.4,8.5-3.4,13.6c0,5.1,1.1,9.6,3.4,13.6c2.3,4,5.2,7,8.8,9.2c3.6,2.2,7.6,3.2,11.9,3.2C78.5,134.3,82.5,133.2,86.1,131.1z"
	/>
<path d="M156.3,149.4c-7-4-12.6-9.6-16.7-16.8c-4-6.9-5.9-15-5.9-24.1c0-8.4,2-16.3,5.9-23.6c3.8-7.4,9.3-13.1,16.3-17.3
	c7-4.3,14.8-6.5,23.3-6.5c9.1,0,16.9,2,23.6,5.9c6.7,4,11.7,9.3,15.1,16.1c3.4,6.8,5.1,14.4,5.1,22.9c0,2.7-0.2,5.3-0.5,7.6h-66.6
	c1.1,6.8,4,12.1,8.5,16c4.4,3.7,9.7,5.6,16,5.6c5.2,0,9.7-1.1,13.6-3.4c3.6-2.2,6.6-5.2,8.8-9.2l18.5,9
	c-8.9,15.7-22.7,23.6-41.3,23.6C171.1,155.4,163.2,153.4,156.3,149.4z M201.1,97.4c-0.2-2.7-1.2-5.4-3.1-8.2c-1.9-2.7-4.4-5-7.5-6.8
	c-3.2-1.8-6.9-2.7-11.2-2.7c-5.4,0-10.1,1.6-13.9,4.8c-4,3.3-6.8,7.6-8.5,12.9H201.1z"/>
<path class="st0" d="M243.8,28.1h43.8c7.8,0,15,1.6,21.6,4.9c6.3,3.2,11.4,7.8,15.3,13.9c3.7,5.9,5.6,12.7,5.6,20.4
	c0,7.7-1.9,14.6-5.6,20.6c-4,6.2-9.1,10.9-15.3,14.1c-6.6,3.3-13.8,4.9-21.6,4.9h-20.4v45.7h-23.4V28.1z M288.3,84.7
	c5.9,0,10.4-1.7,13.6-5.1c3.4-3.6,5.1-7.7,5.1-12.2c0-4.6-1.7-8.7-5.1-12.1c-3.3-3.3-7.8-4.9-13.6-4.9h-21.1v34.3H288.3z"/>
<path class="st0" d="M346.7,63.9H368v11.7c0,0,7.1-7.6,11.7-10.4c4.5-2.7,9.6-4.1,15.3-4.1c4.1,0,7.8,0.7,11.2,2V86
	c-2.9-1.1-5.6-2-8-2.5c-2.5-0.6-4.8-0.8-6.8-0.8c-6.9,0-12.3,2.4-16.1,7.3c-3.9,4.9-5.8,11-5.8,18.5v44.2h-22.8V63.9z"/>
<path class="st0" d="M458,155.4c-9.2,0-17.3-2-24.5-6.1c-7.1-4.1-12.7-9.7-16.8-16.8c-4-6.9-5.9-15-5.9-24.1c0-9.1,2-17,5.9-24
	c4.2-7.2,9.8-12.9,16.8-17c7.4-4.2,15.5-6.3,24.5-6.3c8.9,0,17.1,2.1,24.5,6.3c7,4.1,12.6,9.7,16.8,17c4,6.9,5.9,14.9,5.9,24
	c0,9.2-2,17.2-5.9,24.1c-4.1,7.1-9.7,12.7-16.8,16.8C475.3,153.3,467.2,155.4,458,155.4z M470.2,131.2c3.6-1.9,6.6-4.9,8.8-9
	c2.3-4,3.4-8.6,3.4-13.9c0-5.2-1.1-9.8-3.4-13.8c-2.3-4.1-5.2-7.1-8.8-9c-4-2.2-8-3.2-12.2-3.2c-4.1,0-8.1,1.1-12.1,3.2
	c-3.7,2-6.7,5-9,9c-2.3,4-3.4,8.6-3.4,13.8c0,5,1.1,9.6,3.4,13.8c2.2,4.1,5.2,7.1,9,9.2c3.7,2,7.8,3.1,12.1,3.1
	C462.4,134.3,466.5,133.3,470.2,131.2z"/>
<path d="M45.3,225.3l0.2-3.1h-0.2c-0.7,1.1-1.7,2-3.1,2.8c-1.3,0.8-2.8,1.1-4.5,1.1c-2.1,0-3.9-0.5-5.4-1.5c-1.6-1-2.8-2.4-3.8-4.2
	c-0.9-1.8-1.4-3.8-1.4-6.1c0-2.2,0.5-4.3,1.4-6c1-1.8,2.2-3.3,3.8-4.3c1.6-1,3.4-1.5,5.4-1.5c1.6,0,3.1,0.4,4.5,1.2
	c1.4,0.8,2.4,1.8,3.1,2.9h0.2v-3.3H49v31.6h-3.7V225.3z M41.7,221.8c1.1-0.7,2-1.7,2.7-3c0.7-1.3,1-2.7,1-4.4c0-1.7-0.3-3.2-1-4.5
	c-0.7-1.2-1.6-2.2-2.7-2.9c-1.2-0.7-2.4-1.1-3.6-1.1c-1.2,0-2.4,0.4-3.6,1.1c-1.1,0.7-2,1.6-2.7,3c-0.7,1.3-1,2.8-1,4.4
	c0,1.7,0.3,3.1,1,4.4c0.7,1.3,1.6,2.3,2.7,3c1.2,0.7,2.4,1.1,3.6,1.1C39.3,222.9,40.5,222.5,41.7,221.8z"/>
<path d="M56.2,223.8c-1.4-1.6-2.1-3.8-2.1-6.6v-14h3.7v13.4c0,2.2,0.5,3.7,1.4,4.7c1,1,2.3,1.5,3.9,1.5c1.2,0,2.4-0.3,3.4-1
	c0.9-0.7,1.7-1.5,2.3-2.6c0.5-1,0.8-2.2,0.8-3.4v-12.6h3.7v22.2h-3.5v-3.2h-0.2c-0.6,1.1-1.5,2-2.9,2.8c-1.3,0.7-2.7,1.1-4.3,1.1
	C59.6,226.2,57.6,225.4,56.2,223.8z"/>
<path d="M81.4,225.2c-1.3-0.7-2.3-1.5-3-2.6c-0.7-1.1-1-2.4-1-3.8c0-2.4,0.9-4.2,2.6-5.5c1.8-1.3,4.1-2,6.7-2c1.4,0,2.6,0.1,3.7,0.4
	c1.1,0.3,2,0.6,2.6,1v-1.4c0-1.6-0.6-2.9-1.7-4c-1.1-1-2.6-1.5-4.4-1.5c-1.2,0-2.4,0.3-3.4,0.8c-1.1,0.6-1.9,1.3-2.5,2.3l-2.8-2.1
	c0.9-1.3,2.1-2.4,3.6-3.1c1.5-0.8,3.2-1.1,5.1-1.1c3,0,5.4,0.8,7.1,2.4c1.7,1.6,2.6,3.7,2.6,6.5v14.1h-3.5v-3.2H93
	c-0.7,1.1-1.6,2-2.9,2.8c-1.2,0.7-2.7,1.1-4.3,1.1C84.1,226.2,82.7,225.9,81.4,225.2z M89.7,222c1.1-0.7,1.9-1.5,2.6-2.6
	c0.6-1,0.9-2.2,0.9-3.5c-0.7-0.5-1.5-0.8-2.6-1.1c-1-0.3-2-0.4-3.2-0.4c-2,0-3.6,0.4-4.6,1.3c-1,0.8-1.5,1.9-1.5,3.2
	c0,1.2,0.5,2.2,1.4,3c0.9,0.8,2.1,1.1,3.5,1.1C87.4,223,88.6,222.6,89.7,222z M85.4,198.2c0.9-0.3,1.6-0.6,2-0.9
	c0.4-0.3,0.6-0.8,0.6-1.4c0-0.5-0.2-0.9-0.5-1.2c-0.3-0.3-0.8-0.4-1.4-0.4c-0.8,0-1.6,0.2-2.4,0.5l-0.7-2.3c1.1-0.5,2.3-0.7,3.5-0.7
	c1.4,0,2.6,0.3,3.3,1c0.8,0.7,1.1,1.7,1.1,3c0,1.4-0.4,2.4-1.3,3.2c-0.9,0.8-2.1,1.3-3.4,1.5L85.4,198.2z"/>
<path d="M101.8,203.3h3.5v3.3h0.2c0.6-1.1,1.6-2,2.9-2.8c1.4-0.8,2.8-1.2,4.3-1.2c2.7,0,4.7,0.8,6.1,2.3c1.4,1.6,2.1,3.7,2.1,6.3
	v14.3h-3.7v-13.7c0-2-0.5-3.5-1.5-4.5c-1-0.9-2.3-1.4-4-1.4c-1.2,0-2.3,0.3-3.2,1c-1,0.7-1.7,1.6-2.2,2.6c-0.5,1.1-0.8,2.2-0.8,3.4
	v12.5h-3.7V203.3z"/>
<path d="M142.3,225.4c-0.8-0.3-1.4-0.7-1.9-1.2c-1.2-1.1-1.7-2.6-1.7-4.6v-13h-3.9v-3.4h3.9V197h3.7v6.3h5.4v3.4h-5.4v12.1
	c0,1.2,0.2,2.2,0.7,2.7c0.5,0.6,1.3,0.9,2.4,0.9c0.9,0,1.7-0.2,2.4-0.7v3.6c-0.4,0.2-0.8,0.3-1.3,0.4c-0.5,0.1-1,0.1-1.7,0.1
	C143.9,225.8,143.1,225.7,142.3,225.4z"/>
<path d="M152.2,203.3h3.5v3.6h0.2c0.4-1.2,1.2-2.2,2.5-3c1.2-0.8,2.6-1.2,3.9-1.2c1,0,1.9,0.2,2.6,0.5v4c-1-0.5-2-0.7-3.1-0.7
	c-1.1,0-2,0.3-3,0.9c-0.9,0.6-1.6,1.4-2.2,2.5c-0.5,0.9-0.8,2-0.8,3.3v12.4h-3.7V203.3z"/>
<path d="M170.7,199.2c-0.7,0-1.3-0.3-1.9-0.8c-0.5-0.5-0.8-1.2-0.8-1.9c0-0.7,0.3-1.4,0.8-1.9c0.5-0.5,1.1-0.7,1.9-0.7
	c0.8,0,1.4,0.2,1.9,0.7c0.5,0.5,0.8,1.1,0.8,1.9c0,0.7-0.3,1.4-0.8,1.9C172.1,198.9,171.4,199.2,170.7,199.2z M169.1,233.2
	c-0.5-0.5-0.7-1-0.7-1.7c0-0.7,0.2-1.2,0.7-1.7c0.5-0.4,1-0.6,1.7-0.6c0.7,0,1.2,0.2,1.7,0.6c0.4,0.4,0.6,1,0.6,1.7
	c0,0.7-0.2,1.2-0.6,1.7c-0.4,0.5-1,0.7-1.7,0.7C170.1,233.9,169.6,233.6,169.1,233.2z M168.9,203.3h3.7v22.2h-3.7V203.3z"/>
<path d="M188.5,194.3h3.7v9.2l-0.2,3.1h0.2c0.6-1.1,1.5-2.1,2.9-2.9c1.3-0.8,2.7-1.1,4.3-1.1c2.7,0,4.8,0.8,6.2,2.4
	c1.4,1.6,2.1,3.7,2.1,6.3v14.3H204v-13.7c0-2-0.5-3.5-1.5-4.4c-1-1-2.3-1.4-4-1.4c-1.1,0-2.2,0.4-3.2,1.1c-1,0.7-1.7,1.6-2.3,2.7
	c-0.6,1.1-0.8,2.3-0.8,3.4v12.4h-3.7V194.3z"/>
<path d="M215.2,199.2c-0.7,0-1.3-0.3-1.9-0.8c-0.5-0.5-0.8-1.2-0.8-1.9c0-0.7,0.3-1.4,0.8-1.9c0.5-0.5,1.1-0.7,1.9-0.7
	c0.8,0,1.4,0.2,1.9,0.7c0.5,0.5,0.8,1.1,0.8,1.9c0,0.7-0.3,1.4-0.8,1.9C216.5,198.9,215.9,199.2,215.2,199.2z M213.4,203.3h3.7v22.2
	h-3.7V203.3z"/>
<path d="M227,224.7c-1.7-1-3-2.4-4-4.2c-0.9-1.8-1.4-3.8-1.4-6c0-2.2,0.4-4.1,1.3-5.9c0.9-1.8,2.2-3.3,3.8-4.3
	c1.7-1.1,3.6-1.6,5.7-1.6c2.1,0,4,0.5,5.7,1.5c1.6,1,2.8,2.3,3.7,4c0.9,1.8,1.3,3.7,1.3,5.9c0,0.2,0,0.5-0.1,1.1h-17.6
	c0.1,1.7,0.5,3.1,1.2,4.3c0.7,1.1,1.6,2,2.8,2.6c1.1,0.6,2.3,0.9,3.5,0.9c2.9,0,5.1-1.3,6.6-4l3.1,1.5c-0.9,1.8-2.2,3.2-3.9,4.3
	c-1.6,1.1-3.6,1.6-6,1.6C230.6,226.2,228.7,225.7,227,224.7z M239.1,212.1c0-0.9-0.3-1.9-0.8-2.8c-0.5-0.9-1.2-1.7-2.2-2.3
	s-2.2-1-3.7-1c-1.7,0-3.2,0.6-4.5,1.7c-1.2,1.1-2,2.6-2.4,4.4H239.1z M226.4,198.5l4.5-5.1h3.3l4.4,5.1v0.2H235l-2.3-2.8h-0.3
	l-2.3,2.8h-3.6V198.5z M230.8,233.2c-0.5-0.5-0.7-1-0.7-1.7c0-0.7,0.2-1.2,0.7-1.7c0.5-0.4,1-0.6,1.7-0.6c0.7,0,1.2,0.2,1.7,0.6
	s0.6,1,0.6,1.7c0,0.7-0.2,1.2-0.6,1.7c-0.4,0.5-1,0.7-1.7,0.7C231.8,233.9,231.3,233.6,230.8,233.2z"/>
<path d="M249.3,223.8c-1.4-1.6-2.1-3.8-2.1-6.6v-14h3.7v13.4c0,2.2,0.5,3.7,1.4,4.7c1,1,2.3,1.5,3.9,1.5c1.2,0,2.4-0.3,3.4-1
	c0.9-0.7,1.7-1.5,2.3-2.6c0.5-1,0.8-2.2,0.8-3.4v-12.6h3.7v22.2h-3.5v-3.2h-0.2c-0.6,1.1-1.5,2-2.9,2.8c-1.3,0.7-2.7,1.1-4.3,1.1
	C252.7,226.2,250.7,225.4,249.3,223.8z"/>
<path d="M298.9,225.3l0.2-3.1h-0.2c-0.7,1.1-1.7,2-3.1,2.8c-1.3,0.8-2.8,1.1-4.5,1.1c-2.1,0-3.9-0.5-5.4-1.5c-1.6-1-2.8-2.4-3.8-4.2
	c-0.9-1.8-1.4-3.8-1.4-6.1c0-2.2,0.5-4.3,1.4-6c1-1.8,2.2-3.3,3.8-4.3c1.6-1,3.4-1.5,5.4-1.5c1.6,0,3.1,0.4,4.5,1.2
	c1.4,0.8,2.4,1.8,3.1,2.9h0.2v-3.3h3.5v31.6h-3.7V225.3z M295.3,221.8c1.1-0.7,2-1.7,2.7-3c0.7-1.3,1-2.7,1-4.4c0-1.7-0.3-3.2-1-4.5
	c-0.7-1.2-1.6-2.2-2.7-2.9c-1.2-0.7-2.4-1.1-3.6-1.1c-1.2,0-2.4,0.4-3.6,1.1c-1.1,0.7-2,1.6-2.7,3c-0.7,1.3-1,2.8-1,4.4
	c0,1.7,0.3,3.1,1,4.4c0.7,1.3,1.6,2.3,2.7,3c1.2,0.7,2.4,1.1,3.6,1.1C292.9,222.9,294.1,222.5,295.3,221.8z"/>
<path d="M309.8,223.8c-1.4-1.6-2.1-3.8-2.1-6.6v-14h3.7v13.4c0,2.2,0.5,3.7,1.4,4.7c1,1,2.3,1.5,3.9,1.5c1.2,0,2.4-0.3,3.4-1
	c0.9-0.7,1.7-1.5,2.3-2.6c0.5-1,0.8-2.2,0.8-3.4v-12.6h3.7v22.2h-3.5v-3.2h-0.2c-0.6,1.1-1.5,2-2.9,2.8c-1.3,0.7-2.7,1.1-4.3,1.1
	C313.2,226.2,311.2,225.4,309.8,223.8z"/>
<path d="M335,225.2c-1.3-0.7-2.3-1.5-3-2.6c-0.7-1.1-1-2.4-1-3.8c0-2.4,0.9-4.2,2.6-5.5c1.8-1.3,4.1-2,6.7-2c1.4,0,2.6,0.1,3.7,0.4
	c1.1,0.3,2,0.6,2.6,1v-1.4c0-1.6-0.6-2.9-1.7-4c-1.1-1-2.6-1.5-4.4-1.5c-1.2,0-2.4,0.3-3.4,0.8c-1.1,0.6-1.9,1.3-2.5,2.3l-2.8-2.1
	c0.8-1.3,2.1-2.4,3.6-3.1c1.5-0.8,3.2-1.1,5.1-1.1c3,0,5.4,0.8,7.1,2.4c1.7,1.6,2.6,3.7,2.6,6.5v14.1h-3.5v-3.2h-0.2
	c-0.7,1.1-1.6,2-2.9,2.8c-1.2,0.7-2.7,1.1-4.3,1.1C337.7,226.2,336.3,225.9,335,225.2z M343.3,222c1.1-0.7,1.9-1.5,2.6-2.6
	c0.6-1,0.9-2.2,0.9-3.5c-0.7-0.5-1.5-0.8-2.6-1.1c-1-0.3-2-0.4-3.2-0.4c-2,0-3.6,0.4-4.6,1.3c-1,0.8-1.5,1.9-1.5,3.2
	c0,1.2,0.5,2.2,1.4,3s2.1,1.1,3.5,1.1C341,223,342.2,222.6,343.3,222z M339,198.2c0.9-0.3,1.6-0.6,2-0.9c0.4-0.3,0.6-0.8,0.6-1.4
	c0-0.5-0.2-0.9-0.5-1.2c-0.3-0.3-0.8-0.4-1.4-0.4c-0.8,0-1.6,0.2-2.4,0.5l-0.7-2.3c1.1-0.5,2.3-0.7,3.5-0.7c1.4,0,2.6,0.3,3.3,1
	c0.8,0.7,1.1,1.7,1.1,3c0,1.4-0.4,2.4-1.3,3.2c-0.9,0.8-2.1,1.3-3.4,1.5L339,198.2z"/>
<polygon points="450.8,225.8 371,225.8 371,223.3 449.1,223.3 463.5,188.6 477.4,203.9 491.3,173.5 505.1,187.1 518.4,146.2 
	520.8,147 506.2,191.8 492.1,177.8 478.2,208.5 464.3,193.3 "/>
<path class="st0" d="M514.7,151.2c-1.5-1.5-2.3-3.3-2.3-5.5c0-2.1,0.8-3.8,2.3-5.4c1.5-1.5,3.3-2.2,5.5-2.2s4,0.7,5.5,2.2
	c1.5,1.5,2.2,3.2,2.2,5.4c0,2.2-0.7,4-2.2,5.5c-1.5,1.5-3.3,2.2-5.5,2.2S516.1,152.7,514.7,151.2z"/>
<path d="M529.1,100.9h12.2l14.5,37.8h0.6l14.8-37.8h12l-21.7,51.9h-11L529.1,100.9z"/>
<path d="M590.5,100.9h10.3v7.1h0.6c1.5-2.6,3.7-4.7,6.8-6.3c3.1-1.7,6.3-2.5,9.6-2.5c6.2,0,10.9,1.9,14.2,5.6
	c3.2,3.6,4.9,8.7,4.9,15.2v32.8h-10.8v-31.3c0-4-1-7.1-3.1-9.2c-2-2-4.8-3-8.4-3c-2.6,0-4.9,0.7-6.9,2.1c-2,1.4-3.5,3.3-4.7,5.8
	c-1.1,2.5-1.7,5-1.7,7.7v27.9h-10.9V100.9z"/>
</svg>
