<svg xmlns="http://www.w3.org/2000/svg" width="31.004" height="30.998" viewBox="0 0 31.004 30.998">
  <path id="Subtraction_129" data-name="Subtraction 129" d="M-19481.5,31a15.4,15.4,0,0,1-10.959-4.539A15.384,15.384,0,0,1-19497,15.5a15.391,15.391,0,0,1,4.543-10.962A15.4,15.4,0,0,1-19481.5,0a15.4,15.4,0,0,1,10.961,4.54A15.4,15.4,0,0,1-19466,15.5a15.391,15.391,0,0,1-4.541,10.957A15.4,15.4,0,0,1-19481.5,31Zm.166-24.784a7.022,7.022,0,0,0-7.012,7.017,6.88,6.88,0,0,0,1.053,3.68l5.484,8.979a.552.552,0,0,0,.4.269.529.529,0,0,0,.088,0,.586.586,0,0,0,.51-.284l5.5-9.062a6.886,6.886,0,0,0,.992-3.587A7.022,7.022,0,0,0-19481.334,6.214Zm0,10.52a3.481,3.481,0,0,1-2.49-1.032,3.479,3.479,0,0,1-1.018-2.471,3.512,3.512,0,0,1,3.508-3.508,3.51,3.51,0,0,1,3.5,3.508,3.491,3.491,0,0,1-1.008,2.466A3.471,3.471,0,0,1-19481.334,16.734Z" transform="translate(19497.002)" fill="#c4c4c4"/>
</svg>
