<?xml version="1.0" encoding="utf-8"?>
<!-- Generator: Adobe Illustrator 23.0.0, SVG Export Plug-In . SVG Version: 6.00 Build 0)  -->
<svg version="1.1" id="Layer_1" xmlns="http://www.w3.org/2000/svg" xmlns:xlink="http://www.w3.org/1999/xlink" x="0px" y="0px"
	 viewBox="0 0 31 31" style="enable-background:new 0 0 31 31;" xml:space="preserve">
<style type="text/css">
	.st0{fill:#C4C4C4;}
</style>
<path id="Subtraction_235" class="st0" d="M15.5,31C6.9,31,0,24.1,0,15.5c0-4.1,1.6-8.1,4.5-11c6.1-6,15.9-6,21.9,0.1
	c6,6,6,15.8,0,21.8C23.6,29.4,19.6,31,15.5,31z M7.6,17.6c-0.2,0-0.4,0.2-0.4,0.4v4c0,0.3,0.1,0.6,0.3,0.8c0.3,0.3,0.7,0.4,1.1,0.4
	h3.8c0.2,0,0.4-0.2,0.4-0.4c0-0.2-0.2-0.4-0.4-0.4H8.7c-0.5,0-0.6-0.2-0.6-0.3v-4C8.1,17.8,7.9,17.6,7.6,17.6z M18.6,22.4
	c-0.2,0-0.4,0.2-0.4,0.4c0,0.2,0.2,0.4,0.4,0.4h3.8c0.4,0,0.8-0.1,1.1-0.4c0.2-0.2,0.3-0.5,0.3-0.8v-4c0-0.2-0.2-0.4-0.4-0.4
	c-0.2,0-0.4,0.2-0.4,0.4v4c0,0.1,0,0.1-0.1,0.2c-0.2,0.1-0.3,0.2-0.5,0.2L18.6,22.4z M10.4,16.9c-0.6,0-1,0.4-1,1v2.2
	c0,0.6,0.4,1,1,1h10.4c0.6,0,1-0.4,1-1v-2.2c0-0.6-0.4-1-1-1L10.4,16.9z M7.8,15.3c-0.3,0-0.6,0.2-0.6,0.5s0.2,0.6,0.5,0.6
	c0,0,0.1,0,0.1,0h15.5c0.3,0,0.6-0.2,0.6-0.5c0-0.3-0.2-0.6-0.5-0.6c0,0-0.1,0-0.1,0L7.8,15.3z M10.4,10.6c-0.6,0-1,0.4-1,1v2.2
	c0,0.6,0.4,1,1,1h10.4c0.6,0,1-0.4,1-1v-2.2c0-0.6-0.4-1-1-1L10.4,10.6z M18.7,8.5c-0.2,0-0.4,0.2-0.4,0.4c0,0.2,0.2,0.4,0.4,0.4h4
	c0.1,0,0.1,0,0.2,0.1C23,9.6,23,9.8,23,10v3.8c0,0.2,0.2,0.4,0.4,0.4c0.2,0,0.4-0.2,0.4-0.4V10c0-0.4-0.1-0.8-0.4-1.1
	c-0.2-0.2-0.5-0.3-0.8-0.3L18.7,8.5z M8.7,8.6C8.3,8.5,7.9,8.7,7.5,9C7.3,9.2,7.2,9.5,7.2,9.8v4c0,0.2,0.2,0.4,0.4,0.4
	s0.4-0.2,0.4-0.4v-4c0-0.1,0-0.1,0.1-0.2c0.2-0.1,0.3-0.2,0.5-0.2h3.8c0.2,0,0.4-0.2,0.4-0.4c0-0.2-0.2-0.4-0.4-0.4L8.7,8.6z"/>
</svg>
