<svg xmlns="http://www.w3.org/2000/svg" width="31.004" height="30.998" viewBox="0 0 31.004 30.998">
  <path id="Subtraction_131" data-name="Subtraction 131" d="M-19481.5,31a15.4,15.4,0,0,1-10.959-4.539A15.384,15.384,0,0,1-19497,15.5a15.391,15.391,0,0,1,4.543-10.962A15.4,15.4,0,0,1-19481.5,0a15.4,15.4,0,0,1,10.961,4.54A15.4,15.4,0,0,1-19466,15.5a15.391,15.391,0,0,1-4.541,10.957A15.4,15.4,0,0,1-19481.5,31Zm-6.326-23.6a1.308,1.308,0,0,0-1.307,1.306,14.96,14.96,0,0,0,14.943,14.944,1.305,1.305,0,0,0,1.307-1.3V19.372a1.308,1.308,0,0,0-1.307-1.306,9.273,9.273,0,0,1-2.893-.46,1.232,1.232,0,0,0-.4-.065,1.272,1.272,0,0,0-.889.334l-1.826,1.38a10.136,10.136,0,0,1-4.541-4.541l1.342-1.776a1.311,1.311,0,0,0,.318-1.331,9.331,9.331,0,0,1-.461-2.9,1.3,1.3,0,0,0-1.3-1.306Z" transform="translate(19497.002)" fill="#c4c4c4"/>
</svg>
