<svg xmlns="http://www.w3.org/2000/svg" xmlns:xlink="http://www.w3.org/1999/xlink" width="191.615" height="53.491" viewBox="0 0 191.615 53.491">
  <defs>
    <linearGradient id="linear-gradient" x1="0.5" x2="0.5" y2="1" gradientUnits="objectBoundingBox">
      <stop offset="0" stop-color="#05e457"/>
      <stop offset="0.318" stop-color="#00bc82"/>
      <stop offset="1" stop-color="#02a47d"/>
    </linearGradient>
    <linearGradient id="linear-gradient-2" x1="0.441" x2="0.437" y2="0.95" gradientUnits="objectBoundingBox">
      <stop offset="0" stop-color="#08e1da"/>
      <stop offset="0.338" stop-color="#2bb7eb"/>
      <stop offset="1" stop-color="#0095b4"/>
    </linearGradient>
    <linearGradient id="linear-gradient-3" x1="0.5" x2="0.5" y2="1" gradientUnits="objectBoundingBox">
      <stop offset="0" stop-color="#ff4e00"/>
      <stop offset="1" stop-color="#ffb300"/>
    </linearGradient>
  </defs>
  <g id="Group_21247" data-name="Group 21247" transform="translate(-388.9 -34.9)">
    <g id="Group_162" data-name="Group 162" transform="translate(389 35)">
      <g id="Path_822" data-name="Path 822" transform="translate(-42.754 -107.655)" fill="url(#linear-gradient)">
        <path d="M 42.87000274658203 159.8538055419922 L 42.87000274658203 142.7166900634766 C 42.87000274658203 141.2363433837891 42.92378997802734 140.4555053710938 42.9591178894043 140.1023559570313 L 42.99096298217773 140.1023559570313 C 42.99097061157227 140.0830535888672 43.00458145141602 138.1493988037109 44.0826416015625 136.2329711914063 C 44.71364212036133 135.1112670898438 45.58137130737305 134.2138824462891 46.6617317199707 133.5657196044922 C 48.01510238647461 132.7537994384766 49.70960998535156 132.3315734863281 51.69821166992188 132.310791015625 L 51.79717254638672 132.3097534179688 L 51.79717254638672 132.3010406494141 L 53.93506240844727 132.3010406494141 L 59.31612014770508 132.3010406494141 L 70.53207397460938 132.3010406494141 C 73.09223175048828 132.3010406494141 75.49848175048828 133.16259765625 77.30754089355469 134.7269897460938 C 79.11249542236328 136.2878265380859 80.10643005371094 138.3618316650391 80.10626220703125 140.5669708251953 C 80.10626220703125 145.1248474121094 75.81130218505859 148.8329315185547 70.53207397460938 148.8329315185547 L 59.31612014770508 148.8329315185547 L 55.06307220458984 148.8329315185547 L 55.0601806640625 148.8329315185547 L 55.05730056762695 148.8330993652344 C 51.88452911376953 149.0165710449219 44.43527984619141 150.4649963378906 42.87000274658203 159.8538055419922 Z" stroke="none"/>
        <path d="M 51.89717102050781 132.4010467529297 L 51.89717102050781 132.4087219238281 L 51.69926452636719 132.4107818603516 C 49.73084259033203 132.4313507080078 48.05476379394531 132.847900390625 46.71759033203125 133.6488189697266 C 45.65251922607422 134.2867736816406 44.79663848876953 135.1703491210938 44.17372894287109 136.2750091552734 C 43.10577392578125 138.1688842773438 43.09098052978516 140.0833282470703 43.09096527099609 140.1023101806641 L 43.05961608886719 140.1023101806641 C 43.02484893798828 140.4454193115234 42.97000122070313 141.2233581542969 42.97000122070313 142.7166900634766 L 42.97000122070313 158.8206939697266 C 44.89733123779297 150.2722320556641 51.97274017333984 148.9113006591797 55.05152893066406 148.7332611083984 L 55.05730438232422 148.7329406738281 L 55.06307983398438 148.7329406738281 L 59.31612014770508 148.7329406738281 L 70.53207397460938 148.7329406738281 C 75.75616455078125 148.7329406738281 80.00625610351563 145.0697021484375 80.00625610351563 140.5669708251953 C 80.00643157958984 138.3913269042969 79.02477264404297 136.3441772460938 77.24212646484375 134.8026275634766 C 75.45123291015625 133.2539520263672 73.06822204589844 132.4010467529297 70.53207397460938 132.4010467529297 L 59.31612014770508 132.4010467529297 L 53.93505859375 132.4010467529297 L 51.89717102050781 132.4010467529297 M 51.69717407226563 132.2010498046875 L 53.93505859375 132.2010498046875 L 59.31612014770508 132.2010498046875 L 70.53207397460938 132.2010498046875 C 75.87513732910156 132.2010498046875 80.20661926269531 135.946533203125 80.20626068115234 140.5669860839844 C 80.20626068115234 145.1874389648438 75.87513732910156 148.9329376220703 70.53207397460938 148.9329376220703 L 59.31612014770508 148.9329376220703 L 55.06307983398438 148.9329376220703 C 51.76549530029297 149.1236114501953 44.25217437744141 150.6392517089844 42.89096069335938 160.3775939941406 L 42.89096069335938 160.2033081054688 L 42.77000427246094 161.0461578369141 L 42.77000427246094 142.7166900634766 C 42.77000427246094 140.4798431396484 42.89096069335938 139.8408966064453 42.89096069335938 139.8408966064453 L 42.89096069335938 140.1023254394531 C 42.89096069335938 140.1023254394531 42.8902587890625 132.3028259277344 51.69717407226563 132.2108001708984 L 51.69717407226563 132.2010498046875 Z" stroke="none" fill="#04df5b"/>
      </g>
      <path id="Subtraction_1" data-name="Subtraction 1" d="M42.3,28.84,42.188,28v.174c-1.312-9.774-8.616-11.26-11.7-11.445H9.3a9.78,9.78,0,0,1-6.573-2.45A8.348,8.348,0,0,1,.731,11.622a7.624,7.624,0,0,1,0-6.513A8.349,8.349,0,0,1,2.723,2.45,9.78,9.78,0,0,1,9.3,0H30.839a9.42,9.42,0,0,0,9.286,10.952A9.459,9.459,0,0,0,42.3,10.7V28.84Z" transform="translate(0 4.386)" stroke="#0adfdb" stroke-miterlimit="10" stroke-width="0.2" fill="url(#linear-gradient-2)"/>
      <circle id="Ellipse_1" data-name="Ellipse 1" cx="6.623" cy="6.623" r="6.623" transform="translate(32.805 0)" stroke="#f6e230" stroke-miterlimit="10" stroke-width="0.2" fill="url(#linear-gradient-3)"/>
    </g>
    <g id="Group_4" data-name="Group 4" transform="translate(443.318 43.14)">
      <g id="Group_1" data-name="Group 1" transform="translate(0 0)">
        <path id="Path_824" data-name="Path 824" d="M229.031,93.583a8.829,8.829,0,0,1-2.291,3.475,9.443,9.443,0,0,1-3.952,2.062,18.526,18.526,0,0,1-4.487.439h-3.208v9.069H208.01V79.683h9.47q1.375,0,2.31.057a20.39,20.39,0,0,1,2.368.267A8.865,8.865,0,0,1,226.4,81.8a9.54,9.54,0,0,1,3.4,7.656A11.512,11.512,0,0,1,229.031,93.583Zm-7.847-6.835a7.6,7.6,0,0,0-3.36-.573h-2.73v6.892h3a6.409,6.409,0,0,0,3.227-.649,3.008,3.008,0,0,0,1.394-2.826A2.932,2.932,0,0,0,221.184,86.747Z" transform="translate(-208.01 -79.683)" fill="#424346"/>
        <path id="Path_825" data-name="Path 825" d="M301.616,126.316v-2.31h-.076a4.887,4.887,0,0,1-2.329,2.387,7.643,7.643,0,0,1-3.3.63,7.769,7.769,0,0,1-6.377-2.73,8.183,8.183,0,0,1-1.623-3.17,14.74,14.74,0,0,1-.325-3.532V104.607h6.491v12.009a5.768,5.768,0,0,0,.649,3.093,3.1,3.1,0,0,0,2.826,1.241q3.723,0,3.723-4.41V104.607h6.492v21.709Z" transform="translate(-264.481 -97.371)" fill="#424346"/>
        <path id="Path_826" data-name="Path 826" d="M383.317,123.369a9.849,9.849,0,0,1-6.072,1.871,9.529,9.529,0,0,1-5.938-1.814,7.408,7.408,0,0,1-2.9-5.384h6.453a2.177,2.177,0,0,0,2.463,2,2.774,2.774,0,0,0,1.508-.42,1.452,1.452,0,0,0,.764-1.279,1.919,1.919,0,0,0-1.031-1.661l-.955-.458-3.762-1.356a9.994,9.994,0,0,1-3.551-2.043,4.816,4.816,0,0,1-1.623-3.628,6.375,6.375,0,0,1,2.635-5.27,9.128,9.128,0,0,1,5.785-1.89,8.986,8.986,0,0,1,5.632,1.7,6.94,6.94,0,0,1,2.692,5.155h-6.377q-.057-1.642-2.024-1.642-1.852,0-1.852,1.451,0,1.088,1.718,1.776a16.318,16.318,0,0,0,1.737.592c.064.013.146.032.248.057l1.757.554a14.956,14.956,0,0,1,2,.8,7.178,7.178,0,0,1,1.738,1.184,5.418,5.418,0,0,1,1.718,4.181A6.533,6.533,0,0,1,383.317,123.369Z" transform="translate(-321.838 -95.551)" fill="#424346"/>
        <path id="Path_827" data-name="Path 827" d="M453.965,108.628v-11.8a6,6,0,0,0-.687-3.15,3.043,3.043,0,0,0-2.807-1.394,3.316,3.316,0,0,0-2.864,1.222,5.191,5.191,0,0,0-.764,3.074v12.048h-6.491V79.683h6.491v9.241h.076a4.955,4.955,0,0,1,2.406-2.139,7.791,7.791,0,0,1,3.188-.611,7.339,7.339,0,0,1,5.9,2.387,7.8,7.8,0,0,1,1.795,3.761,12.581,12.581,0,0,1,.21,2.024q.019.458.038,1.069v13.212h-6.492Z" transform="translate(-372.897 -79.683)" fill="#424346"/>
      </g>
      <g id="Group_2" data-name="Group 2" transform="translate(91.507 0)">
        <path id="Path_828" data-name="Path 828" d="M543.09,108.628v-3.761h-.077a9.4,9.4,0,0,1-8.325,4.277,11.253,11.253,0,0,1-8.152-3.227,11.248,11.248,0,0,1,.038-16.038,11.321,11.321,0,0,1,8.114-3.188,9.463,9.463,0,0,1,8.325,4.22h.077V79.683h2.749v28.945ZM540.8,91.769a8.132,8.132,0,0,0-6.11-2.616,8.445,8.445,0,0,0-6.281,2.52,8.641,8.641,0,0,0-2.482,6.32,8.407,8.407,0,0,0,2.5,6.224,8.564,8.564,0,0,0,6.262,2.463,8.189,8.189,0,0,0,6.11-2.578,8.507,8.507,0,0,0,2.463-6.148A8.637,8.637,0,0,0,540.8,91.769Z" transform="translate(-523.195 -79.683)" fill="#424346"/>
        <path id="Path_829" data-name="Path 829" d="M619.639,134.613h-2.845l3.7-8.21-8.325-20.678h2.9l6.8,17.05,7.274-17.05h2.883Z" transform="translate(-586.34 -98.164)" fill="#424346"/>
      </g>
    </g>
  </g>
</svg>
