<?xml version="1.0" encoding="utf-8"?>
<!-- Generator: Adobe Illustrator 23.0.0, SVG Export Plug-In . SVG Version: 6.00 Build 0)  -->
<svg version="1.1" id="Layer_1" xmlns="http://www.w3.org/2000/svg" xmlns:xlink="http://www.w3.org/1999/xlink" x="0px" y="0px"
	 viewBox="0 0 185.4 165.6" style="enable-background:new 0 0 185.4 165.6;" xml:space="preserve">
<style type="text/css">
	.st0{fill:#DCF1FF;}
	.st1{fill:none;}
	.st2{fill:#FFFFFF;}
	.st3{fill:#515151;}
	.st4{fill:#F5F5F5;}
	.st5{fill:#00C6DA;}
	.st6{fill:#2096FF;}
	.st7{fill:#F28906;}
	.st8{fill:#FF4C2B;}
	.st9{fill:#1AFC5A;}
	.st10{fill:#B41ED8;}
	.st11{fill:#00C9D8;}
	.st12{fill:#07AFC8;}
	.st13{fill:#0098FF;}
	.st14{fill:#00ED87;}
</style>
<g>
	<g>
		<circle class="st0" cx="74.2" cy="82.8" r="68.8"/>
	</g>
	<g>
	</g>
	<path class="st1" d="M74.2,14C53,14,34,23.6,21.4,38.7h85.5c6.4,0,11.6,5.2,11.6,11.6v65c0,6.4-5.2,11.6-11.6,11.6H21.4
		C34,142,53,151.6,74.2,151.6c38,0,68.8-30.8,68.8-68.8S112.2,14,74.2,14z"/>
	<path class="st2" d="M116.4,115.3v-65c0-5.3-4.3-9.6-9.6-9.6h-87C10.8,52.4,5.4,67,5.4,82.8s5.4,30.4,14.4,42.1h87.1
		C112.1,124.9,116.4,120.6,116.4,115.3z"/>
	<path class="st3" d="M118.4,115.3v-65c0-6.4-5.2-11.6-11.6-11.6H21.4c-0.5,0.7-1.1,1.3-1.6,2h87.1c5.3,0,9.6,4.3,9.6,9.6v65
		c0,5.3-4.3,9.6-9.6,9.6H19.8c0.5,0.7,1,1.3,1.6,2h85.5C113.2,126.9,118.4,121.7,118.4,115.3z"/>
	<path class="st1" d="M74.2,14C43,14,16.6,34.8,8.2,63.4h48.7v43H9.6c9.6,26.4,34.9,45.2,64.7,45.2c38,0,68.8-30.8,68.8-68.8
		S112.2,14,74.2,14z"/>
	<path class="st4" d="M56.9,63.4H8.2c-1.8,6.2-2.8,12.7-2.8,19.4c0,8.3,1.5,16.2,4.2,23.6h47.3C56.9,106.4,56.9,63.4,56.9,63.4z"/>
	<path class="st3" d="M13.5,55.9h93.2V55H13.5V55.9z"/>
	<rect x="21.4" y="45.1" class="st3" width="5" height="6"/>
	<rect x="28.4" y="45.1" class="st3" width="5.3" height="6"/>
	<rect x="35.7" y="45.1" class="st3" width="5.7" height="6"/>
	<path class="st4" d="M56.9,108.6H10.4c1,2.1,2.1,4.1,3.3,6h43.2V108.6z"/>
	<g>
		<rect id="Rectangle_1001_2_" x="62" y="63.5" class="st4" width="40.6" height="26.8"/>
		<rect id="Rectangle_1001_1_" x="62" y="99.8" class="st4" width="40.6" height="14.5"/>
		<rect id="Rectangle_1002_1_" x="61.7" y="92.7" class="st4" width="40.8" height="4.3"/>
	</g>
	<circle class="st5" cx="109.7" cy="63.7" r="4"/>
	<circle class="st6" cx="109.7" cy="72.7" r="4"/>
	<circle class="st7" cx="109.7" cy="81.8" r="4"/>
	<circle class="st8" cx="109.7" cy="90.8" r="4"/>
	<circle class="st9" cx="109.7" cy="99.8" r="4"/>
	<circle class="st10" cx="109.7" cy="108.9" r="4"/>
	<g>
		<g id="idea_1_" transform="translate(970.107 1401.177)">
			<g transform="matrix(1, 0, 0, 1, -118.11, -14.18)">
				<circle id="Ellipse_469-6" class="st2" cx="-729" cy="-1348.7" r="23"/>
			</g>
			<path id="Path_112701" class="st2" d="M-847.1-1344.8L-847.1-1344.8c-2.5,0-4.5-2-4.5-4.5v-2.2h8.9v2.2
				C-842.6-1346.8-844.6-1344.8-847.1-1344.8z"/>
		</g>
		<g id="Group_21089" transform="translate(1004.096 1449.73)">
			<g id="idea_1_2" transform="translate(0 0)">
				<g transform="matrix(1, 0, 0, 1, -152.1, -62.73)">
					<circle id="Ellipse_469-7" class="st2" cx="-695" cy="-1299.7" r="23"/>
				</g>
			</g>
		</g>
		<g id="Group_21087" transform="translate(971.078 1402.148)">
			<path id="Rectangle_483" class="st11" d="M-848-1385.5L-848-1385.5c12,0,21.7,9.7,21.7,21.7l0,0c0,12-9.7,21.7-21.7,21.7l0,0
				c-12,0-21.7-9.7-21.7-21.7l0,0C-869.7-1375.8-860-1385.5-848-1385.5z"/>
			<path id="Path_107437" class="st2" d="M-848.1-1377.1c-7.3,0-13.2,5.5-13.2,12.3c0,3.8,1.8,7.3,4.8,9.5v4.7l4.4-2.5
				c1.3,0.4,2.6,0.5,3.9,0.5c7.3,0,13.2-5.5,13.2-12.3S-840.8-1377.1-848.1-1377.1z"/>
			<g id="Group_6019" transform="translate(13.162 16.68)">
				<path id="Path_107394" class="st12" d="M-869.3-1385.1c-0.3,0.1-0.5,0.4-0.5,0.7c0,0.2,0.2,0.4,0.5,0.5c0.1,0,0.3,0,0.4,0
					c0.6,0,1.2,0,1.8,0c0.1,0,0.1,0,0.2,0.1c-0.1,0.1-0.1,0.1-0.2,0.2c-0.9,1.1-1.8,2.2-2.6,3.3c-0.2,0.2-0.3,0.6-0.2,0.9
					c0.2,0.3,0.5,0.5,0.8,0.4c0.3,0,0.5,0,0.8,0c0.9,0,1.8,0,2.7,0c0.3,0,0.7-0.2,0.7-0.6c0-0.1,0-0.1,0-0.2c0-0.4-0.3-0.5-0.7-0.6
					c-0.8,0-1.6,0-2.5,0l0,0c0.1-0.1,0.1-0.2,0.2-0.3c0.7-0.9,1.5-1.9,2.2-2.8c0.2-0.3,0.4-0.6,0.6-0.9c0.1-0.3,0-0.7-0.3-0.8h-0.1
					c-0.2,0-0.4-0.1-0.5-0.1c-1,0-2,0-3,0C-869-1385.1-869.1-1385.1-869.3-1385.1z"/>
				<path id="Path_107395" class="st12" d="M-863.2-1378.8c0.6,0.2,1.2,0.1,1.7-0.3c0.1-0.1,0.2-0.1,0.3,0c0.2,0.2,0.5,0.3,0.8,0.2
					c0.3-0.1,0.5-0.3,0.5-0.6c0-1.1,0-2.3,0-3.4c0-0.4-0.3-0.7-0.7-0.7c-0.1,0-0.1,0-0.2,0c-0.2,0.1-0.4,0.2-0.5,0.4l0,0
					c-0.6-0.6-1.6-0.7-2.3-0.2c-0.9,0.5-1.3,1.5-1.2,2.5C-864.7-1380-864.1-1379.1-863.2-1378.8z M-862.3-1382.4
					c0.3,0,0.5,0.1,0.7,0.4c0.3,0.5,0.3,1.1,0,1.6c-0.1,0.1-0.1,0.1-0.2,0.2c-0.4,0.3-1,0.2-1.3-0.2c-0.1-0.2-0.2-0.4-0.2-0.7
					C-863.3-1381.9-862.9-1382.4-862.3-1382.4z"/>
				<path id="Path_107396" class="st12" d="M-854.8-1378.7c1.4-0.1,2.4-1.3,2.3-2.6s-1.3-2.4-2.6-2.3s-2.4,1.2-2.3,2.6
					c0,1.3,1,2.3,2.3,2.4C-855-1378.7-854.9-1378.7-854.8-1378.7z M-854.9-1382.4c0.3,0,0.5,0.1,0.7,0.4c0.3,0.5,0.3,1.1,0,1.6
					c0,0.1-0.1,0.1-0.2,0.2l0,0c-0.4,0.3-1,0.2-1.3-0.2l0,0c-0.2-0.2-0.3-0.5-0.2-0.8l0,0C-856-1381.8-855.6-1382.3-854.9-1382.4
					C-855-1382.4-855-1382.4-854.9-1382.4L-854.9-1382.4z"/>
				<path id="Path_107397" class="st12" d="M-859.3-1379.6c0,0.3,0.2,0.6,0.5,0.7c0.1,0,0.1,0,0.2,0c0.4,0,0.7-0.3,0.7-0.7
					c0-0.9,0-1.8,0-2.6c0-0.9,0-1.8,0-2.7c0-0.4-0.3-0.7-0.7-0.7s-0.7,0.3-0.7,0.7c0,0.3,0,0.5,0,0.8V-1379.6z"/>
			</g>
		</g>
		<g id="Group_21090" transform="translate(1005.389 1452.967)">
			<path id="Rectangle_485" class="st13" d="M-848.5-1387.1L-848.5-1387.1c11.9,0,21.5,9.6,21.5,21.5l0,0c0,11.9-9.6,21.5-21.5,21.5
				l0,0c-11.9,0-21.5-9.6-21.5-21.5l0,0C-870-1377.5-860.4-1387.1-848.5-1387.1z"/>
			<path id="Subtraction_87" class="st2" d="M-856.3-1352.6L-856.3-1352.6v-4.7c-0.7-0.6-1.4-1.2-2-1.9c-0.6-0.7-1.1-1.4-1.5-2.3
				c-0.4-0.8-0.7-1.7-1-2.5c-0.6-2.5-0.4-5.2,0.7-7.5c0.7-1.5,1.6-2.8,2.8-3.9s2.6-2,4.2-2.6c3.3-1.3,6.9-1.3,10.2,0
				c1.5,0.6,2.9,1.5,4.2,2.6c1.2,1.1,2.1,2.4,2.8,3.9c1.4,3,1.4,6.5,0,9.5c-0.7,1.5-1.6,2.8-2.8,3.9s-2.6,2-4.2,2.6
				c-1.6,0.6-3.4,1-5.1,1c-1.3,0-2.6-0.2-3.9-0.5L-856.3-1352.6L-856.3-1352.6z M-850.1-1366.1L-850.1-1366.1l3.4,3.5l7-7.5
				l-6.4,3.5l-3.4-3.5l-7.1,7.5L-850.1-1366.1L-850.1-1366.1z"/>
		</g>
		<g id="Group_21045" transform="translate(0 0)">
			<g id="idea_1_3" transform="translate(0 0)">
				<g transform="matrix(1, 0, 0, 1, -113.58, -104.16)">
					<circle id="Ellipse_469-8" class="st2" cx="232.1" cy="232" r="22.5"/>
				</g>
			</g>
		</g>
		<g id="Group_21048" transform="translate(1.618 1.942)">
			<path id="Rectangle_489" class="st14" d="M116.9,104.9L116.9,104.9c11.6,0,21,9.4,21,21l0,0c0,11.6-9.4,21-21,21l0,0
				c-11.6,0-21-9.4-21-21l0,0C95.9,114.3,105.3,104.9,116.9,104.9z"/>
			<g id="Group_6021" transform="translate(10.847 10.617)">
				<path id="Shape" class="st2" d="M104.6,117c-1.3-1.2-2.2-2.9-2.5-4.7c0-0.2,0-0.4,0.2-0.6l1.6-1.6c0.2-0.2,0.3-0.6,0.1-0.9
					l-2.5-3.9c-0.2-0.3-0.6-0.4-0.9-0.3l-4,1.9c-0.3,0.1-0.4,0.4-0.4,0.7c0.5,4.5,2.6,8.7,5.9,11.8c3.1,3.3,7.3,5.4,11.8,5.9
					c0.3,0,0.6-0.1,0.7-0.4l1.9-4c0.2-0.3,0.1-0.7-0.3-0.9l-3.9-2.5c-0.3-0.2-0.6-0.1-0.9,0.1l-1.6,1.6c-0.2,0.2-0.4,0.2-0.6,0.2
					C107.5,119.2,105.8,118.3,104.6,117z"/>
				<path id="Shape-2" class="st2" d="M112.3,115.9c-0.4,0-0.7-0.3-0.7-0.7l0,0c0-2.9-2.4-5.3-5.3-5.3l0,0c-0.4,0-0.7-0.3-0.7-0.7
					s0.3-0.7,0.7-0.7c3.7,0,6.7,3,6.7,6.7C113,115.6,112.7,115.9,112.3,115.9L112.3,115.9z"/>
				<path id="Shape-3" class="st2" d="M115.8,115.9c-0.4,0-0.7-0.3-0.7-0.7l0,0c0-4.9-3.9-8.8-8.8-8.8c-0.4,0-0.7-0.3-0.7-0.7
					s0.3-0.7,0.7-0.7c5.6,0,10.2,4.6,10.2,10.2C116.5,115.6,116.2,115.9,115.8,115.9L115.8,115.9L115.8,115.9z"/>
			</g>
		</g>
	</g>
</g>
</svg>
