<?xml version="1.0" encoding="utf-8"?>
<!-- Generator: Adobe Illustrator 23.0.0, SVG Export Plug-In . SVG Version: 6.00 Build 0)  -->
<svg version="1.1" id="Layer_1" xmlns="http://www.w3.org/2000/svg" xmlns:xlink="http://www.w3.org/1999/xlink" x="0px" y="0px"
	 viewBox="0 0 185.4 165.6" style="enable-background:new 0 0 185.4 165.6;" xml:space="preserve">
<style type="text/css">
	.st0{fill:#DCF1FF;}
	.st1{clip-path:url(#SVGID_2_);fill:#FFFFFF;}
	.st2{clip-path:url(#SVGID_4_);fill:none;stroke:#515151;stroke-width:2;}
	.st3{fill:#515151;}
	.st4{fill:none;stroke:#515151;}
	.st5{fill:#374266;}
	.st6{fill:#FFFFFF;}
	.st7{fill:#0EA0C6;}
	.st8{fill:#FFF700;}
</style>
<g>
	<g>
		<circle class="st0" cx="84.7" cy="82.8" r="68"/>
		<g>
			<g>
				<defs>
					<circle id="SVGID_1_" cx="84.7" cy="82.8" r="68"/>
				</defs>
				<clipPath id="SVGID_2_">
					<use xlink:href="#SVGID_1_"  style="overflow:visible;"/>
				</clipPath>
				<path class="st1" d="M50.7,34.8h68c7.7,0,14,6.3,14,14v108c0,7.7-6.3,14-14,14h-68c-7.7,0-14-6.3-14-14v-108
					C36.7,41.1,43,34.8,50.7,34.8z"/>
			</g>
			<g>
				<defs>
					<circle id="SVGID_3_" cx="84.7" cy="82.8" r="68"/>
				</defs>
				<clipPath id="SVGID_4_">
					<use xlink:href="#SVGID_3_"  style="overflow:visible;"/>
				</clipPath>
				<path class="st2" d="M50.7,35.8h68c7.2,0,13,5.8,13,13v108c0,7.2-5.8,13-13,13h-68c-7.2,0-13-5.8-13-13v-108
					C37.7,41.6,43.5,35.8,50.7,35.8z"/>
			</g>
		</g>
		<path id="Path_112880" class="st3" d="M36.9,60.1h95.3V58H36.9V60.1z"/>
		<circle class="st3" cx="67.2" cy="49.3" r="2.5"/>
		<circle class="st4" cx="67.2" cy="49.3" r="2"/>
		<path class="st3" d="M74.7,47.8h28c1.1,0,2,0.9,2,2l0,0c0,1.1-0.9,2-2,2h-28c-1.1,0-2-0.9-2-2l0,0C72.7,48.7,73.6,47.8,74.7,47.8z
			"/>
		<path class="st4" d="M74.7,48.3h28c0.8,0,1.5,0.7,1.5,1.5l0,0c0,0.8-0.7,1.5-1.5,1.5h-28c-0.8,0-1.5-0.7-1.5-1.5l0,0
			C73.2,49,73.9,48.3,74.7,48.3z"/>
		<path id="Rectangle_1264" class="st5" d="M57.7,66.8h108c1.7,0,3,1.3,3,3v25c0,1.7-1.3,3-3,3h-108c-1.7,0-3-1.3-3-3v-25
			C54.7,68.1,56,66.8,57.7,66.8z"/>
		<path id="Rectangle_1106" class="st6" d="M87.7,74.8h44c0.6,0,1,0.4,1,1v4c0,0.6-0.4,1-1,1h-44c-0.6,0-1-0.4-1-1v-4
			C86.7,75.2,87.1,74.8,87.7,74.8z"/>
		<path id="Rectangle_1265" class="st6" d="M87.7,83.8h58c0.6,0,1,0.4,1,1v4c0,0.6-0.4,1-1,1h-58c-0.6,0-1-0.4-1-1v-4
			C86.7,84.2,87.1,83.8,87.7,83.8z"/>
		<circle id="Ellipse_616" class="st6" cx="71.2" cy="82.3" r="11.5"/>
		<path class="st7" d="M70.4,89.3h-0.3h-2.8H67V89V75.7v-0.3h0.3h5.2c0.8,0,1.6,0.1,2.2,0.3c0.6,0.2,1.2,0.6,1.7,1s0.8,0.9,1,1.5
			s0.4,1.2,0.4,1.9c0,0.7-0.1,1.3-0.4,1.9c-0.2,0.6-0.6,1-1.1,1.4s-1,0.7-1.7,0.9c-0.6,0.2-1.4,0.3-2.2,0.3h-2.2v4.5v0.2H70.4z
			 M70.4,81.8h2.2c0.4,0,0.7,0,0.9-0.1c0.2-0.1,0.5-0.2,0.6-0.4c0.2-0.1,0.3-0.3,0.3-0.5c0.1-0.2,0.1-0.5,0.1-0.7
			c0-0.3,0-0.5-0.1-0.8c-0.1-0.2-0.2-0.4-0.3-0.6c-0.2-0.2-0.4-0.3-0.6-0.4c-0.3-0.1-0.6-0.2-0.9-0.2h-2.2V81.8z"/>
		<path class="st7" d="M70.1,89v-4.7h2.5c0.8,0,1.5-0.1,2.1-0.3c0.6-0.2,1.1-0.5,1.6-0.8c0.4-0.4,0.8-0.8,1-1.3s0.3-1.1,0.3-1.8
			c0-0.6-0.1-1.2-0.3-1.8c-0.2-0.5-0.6-1-1-1.4s-1-0.7-1.6-0.9c-0.6-0.2-1.3-0.3-2.1-0.3h-5.2v13.4L70.1,89 M70.1,77.9h2.5
			c0.4,0,0.7,0.1,1,0.2s0.5,0.3,0.7,0.5s0.3,0.4,0.4,0.7c0.1,0.3,0.1,0.5,0.1,0.8s0,0.6-0.1,0.8c-0.1,0.2-0.2,0.5-0.4,0.6
			c-0.2,0.2-0.4,0.3-0.7,0.4C73.3,82,73,82,72.6,82h-2.5V77.9 M70.6,89.5h-0.5h-2.8h-0.5V89V75.7v-0.5h0.5h5.2
			c0.8,0,1.6,0.1,2.3,0.4c0.7,0.2,1.3,0.6,1.7,1c0.5,0.4,0.9,1,1.1,1.6c0.3,0.6,0.4,1.3,0.4,2s-0.1,1.4-0.4,2s-0.6,1.1-1.1,1.5
			s-1.1,0.7-1.7,0.9c-0.6,0.1-1.4,0.2-2.2,0.2h-2V89V89.5z M70.6,81.6h2c0.3,0,0.6,0,0.9-0.1c0.2-0.1,0.4-0.2,0.5-0.3
			c0.1-0.1,0.2-0.3,0.3-0.4c0.1-0.2,0.1-0.4,0.1-0.6s0-0.5-0.1-0.7S74.1,79.1,74,79c-0.1-0.1-0.3-0.3-0.5-0.4s-0.5-0.1-0.8-0.1h-2
			L70.6,81.6L70.6,81.6z"/>
	</g>
	<path id="Path_112881" class="st8" d="M159.6,68.9l1.9,3.9l4.3,0.6l-3.1,3l0.7,4.3l-3.9-2l-3.9,2l0.7-4.3l-3.1-3l4.3-0.6
		L159.6,68.9z"/>
</g>
</svg>
