<?xml version="1.0" encoding="utf-8"?>
<!-- Generator: Adobe Illustrator 23.0.0, SVG Export Plug-In . SVG Version: 6.00 Build 0)  -->
<svg version="1.1" id="Layer_1" xmlns="http://www.w3.org/2000/svg" xmlns:xlink="http://www.w3.org/1999/xlink" x="0px" y="0px"
	 viewBox="0 0 185.4 165.6" style="enable-background:new 0 0 185.4 165.6;" xml:space="preserve">
<style type="text/css">
	.st0{fill:#DCF1FF;}
	.st1{fill:none;}
	.st2{fill:#FFFFFF;}
	.st3{fill:#515151;}
	.st4{fill:#F5F5F5;}
	.st5{fill:#374266;}
	.st6{enable-background:new    ;}
	.st7{fill:#FF5A5A;}
	.st8{fill:#FFAA00;stroke:#515151;stroke-width:3;}
	.st9{fill:#FFECC9;stroke:#515151;stroke-width:3;}
	.st10{clip-path:url(#SVGID_2_);fill:#FE8D2A;}
	.st11{fill:#2DD0FF;stroke:#515151;stroke-width:3;}
	.st12{clip-path:url(#SVGID_4_);fill:#00A6D6;}
	.st13{fill:#0BF392;stroke:#515151;stroke-width:3;}
	.st14{clip-path:url(#SVGID_6_);fill:#05CC79;}
</style>
<g>
	<g>
		<circle class="st0" cx="92.7" cy="82.8" r="68.8"/>
	</g>
	<g>
		<path class="st1" d="M92.7,14c-21.2,0-40.2,9.6-52.8,24.7h85.5c6.4,0,11.6,5.2,11.6,11.6v65c0,6.4-5.2,11.6-11.6,11.6H39.8
			c12.6,15.1,31.6,24.7,52.8,24.7c38,0,68.8-30.8,68.8-68.8S130.6,14,92.7,14z"/>
		<path class="st2" d="M134.9,115.3v-65c0-5.3-4.3-9.6-9.6-9.6h-87c-9,11.6-14.4,26.2-14.4,42.1s5.4,30.4,14.4,42.1h87.1
			C130.6,124.9,134.9,120.6,134.9,115.3z"/>
		<path class="st3" d="M137,115.3v-65c0-6.4-5.2-11.6-11.6-11.6H39.8c-0.5,0.7-1.1,1.3-1.6,2h87.1c5.3,0,9.6,4.3,9.6,9.6v65
			c0,5.3-4.3,9.6-9.6,9.6h-87c0.5,0.7,1,1.3,1.6,2h85.5C131.8,126.9,137,121.7,137,115.3z"/>
	</g>
	<g>
		<path class="st1" d="M92.7,14c-31.3,0-57.6,20.8-66,49.4h48.7v43H28c9.6,26.4,34.9,45.2,64.7,45.2c38,0,68.8-30.8,68.8-68.8
			S130.6,14,92.7,14z"/>
		<path class="st4" d="M75.3,63.4H26.6c-1.8,6.2-2.8,12.7-2.8,19.4c0,8.3,1.5,16.2,4.2,23.6h47.3V63.4z"/>
	</g>
	<path class="st3" d="M31.9,55.9h93.2V55H31.9V55.9z"/>
	<path class="st5" d="M85.8,64h35c2.2,0,4,1.8,4,4v47c0,2.2-1.8,4-4,4h-35c-2.2,0-4-1.8-4-4V68C81.8,65.8,83.7,64,85.8,64z"/>
	<g class="st6">
		<path class="st2" d="M97.3,95l-0.5-1.6h-3.9L92.4,95h-3l4.5-11.1H96l4.4,11.1H97.3z M94.9,87.4L94.9,87.4l-1.2,3.8H96L94.9,87.4z"
			/>
		<path class="st2" d="M107.5,95v-0.9h0c-0.2,0.4-0.6,0.7-1.1,0.9c-0.4,0.2-0.9,0.3-1.4,0.3c-1.2,0-2.3-0.4-3-1.3
			c-0.8-0.8-1.1-1.9-1.1-3.1c0-1.2,0.4-2.3,1.1-3.1c0.8-0.9,1.8-1.3,3-1.3c1,0,1.8,0.3,2.4,1v-3.5h2.5V95H107.5z M106.9,89.3
			c-0.4-0.4-0.9-0.6-1.5-0.6c-0.6,0-1.1,0.2-1.5,0.6c-0.4,0.4-0.6,0.9-0.6,1.5c0,0.6,0.2,1.1,0.6,1.5c0.4,0.4,0.9,0.6,1.5,0.6
			c0.6,0,1.1-0.2,1.5-0.6c0.4-0.4,0.6-0.9,0.6-1.5C107.5,90.2,107.3,89.7,106.9,89.3z"/>
		<path class="st2" d="M116.8,94.6c-0.6,0.5-1.4,0.7-2.3,0.7c-0.9,0-1.7-0.2-2.3-0.7c-0.6-0.5-1-1.2-1.1-2.1h2.5
			c0.1,0.5,0.4,0.8,0.9,0.8c0.2,0,0.4-0.1,0.6-0.2c0.2-0.1,0.3-0.3,0.3-0.5c0-0.3-0.1-0.5-0.4-0.6l-0.4-0.2l-1.4-0.5
			c-0.6-0.2-1-0.5-1.4-0.8c-0.4-0.4-0.6-0.9-0.6-1.4c0-0.8,0.3-1.5,1-2c0.6-0.5,1.4-0.7,2.2-0.7c0.9,0,1.6,0.2,2.2,0.7
			c0.6,0.5,1,1.1,1,2h-2.4c0-0.4-0.3-0.6-0.8-0.6c-0.5,0-0.7,0.2-0.7,0.6c0,0.3,0.2,0.5,0.7,0.7c0.1,0.1,0.4,0.1,0.7,0.2
			c0,0,0.1,0,0.1,0l0.7,0.2c0.3,0.1,0.6,0.2,0.8,0.3c0.3,0.1,0.5,0.3,0.7,0.5c0.4,0.4,0.7,0.9,0.7,1.6
			C117.9,93.3,117.5,94,116.8,94.6z"/>
	</g>
	<path class="st7" d="M121.5,70.8c0,1.8-1.2,3.9-3,5.6c-0.7,0.7-1.5,1.3-2.4,1.8c-3-1.7-5.4-4.9-5.4-7.4c0-1.6,1.3-2.8,2.8-2.8
		c1.1,0,2,0.6,2.5,1.5c0,0.1,0.1,0.1,0.1,0.2c0.1-0.2,0.2-0.4,0.3-0.5c0.9-1.3,2.7-1.6,4-0.7C121,69,121.5,69.9,121.5,70.8
		L121.5,70.8z"/>
	<rect x="39.8" y="45.1" class="st3" width="5" height="6"/>
	<rect x="46.8" y="45.1" class="st3" width="5.3" height="6"/>
	<rect x="54.1" y="45.1" class="st3" width="5.7" height="6"/>
	<path class="st4" d="M68.1,108.6H28.8c0.8,2.1,1.8,4.1,2.8,6H68L68.1,108.6L68.1,108.6z"/>
	<path class="st8" d="M69.3,120.3h-2.5c-9.1,0-16.5,7.4-16.5,16.5v6.4h35.5v-6.4C85.8,127.7,78.3,120.3,69.3,120.3L69.3,120.3z"/>
	<path class="st9" d="M67.9,101.3c-4.9,0-8.8,3.9-8.8,8.8l0,0v1.2c0,4.9,3.9,8.8,8.8,8.8c4.8,0,8.8-3.9,8.8-8.8v-1.2
		C76.8,105.2,72.8,101.3,67.9,101.3L67.9,101.3z"/>
	<g>
		<g>
			<g>
				<g>
					<defs>
						<path id="SVGID_1_" d="M65.4,123.7c0,0-5.3,7.8,1,18.6c-11.8,0.2-15.7,0-15.7,0l-1.4-12.7l6.1-5.9l5.6-2.5h5.3L65.4,123.7z"/>
					</defs>
					<clipPath id="SVGID_2_">
						<use xlink:href="#SVGID_1_"  style="overflow:visible;"/>
					</clipPath>
					<path class="st10" d="M68.6,121.9h-2c-7.9,0-15,7-15,14.8v5.1l31.3-0.3v-5.4C82.8,128.2,76.3,121.9,68.6,121.9z"/>
				</g>
			</g>
		</g>
	</g>
	<g>
		<path class="st11" d="M104.8,120.3h-2.5c-9.1,0-16.5,7.4-16.5,16.5v6.4h35.5v-6.4C121.3,127.7,113.8,120.3,104.8,120.3
			L104.8,120.3z"/>
		<path class="st9" d="M103.5,101.3c-4.9,0-8.8,3.9-8.8,8.8l0,0v1.2c0,4.9,3.9,8.8,8.8,8.8s8.8-3.9,8.8-8.8v-1.2
			C112.3,105.2,108.3,101.3,103.5,101.3L103.5,101.3z"/>
		<g>
			<g>
				<g>
					<g>
						<defs>
							<path id="SVGID_3_" d="M100.4,123.7c0,0-5.3,7.8,1,18.6c-11.8,0.2-15.7,0-15.7,0l-1.4-12.7l6.1-5.9l5.6-2.5h5.3L100.4,123.7z
								"/>
						</defs>
						<clipPath id="SVGID_4_">
							<use xlink:href="#SVGID_3_"  style="overflow:visible;"/>
						</clipPath>
						<path class="st12" d="M103.5,121.9h-2c-7.9,0-15,7-15,14.8v5.1l31.3-0.3v-5.4C117.8,128.2,111.3,121.9,103.5,121.9z"/>
					</g>
				</g>
			</g>
		</g>
	</g>
	<path class="st13" d="M140.4,120.3h-2.5c-9.1,0-16.5,7.4-16.5,16.5v6.4h35.5v-6.4C156.9,127.7,149.5,120.3,140.4,120.3L140.4,120.3
		z"/>
	<path class="st9" d="M139,101.3c-4.9,0-8.8,3.9-8.8,8.8l0,0v1.2c0,4.9,3.9,8.8,8.8,8.8c4.8,0,8.8-3.9,8.8-8.8v-1.2
		C147.9,105.2,144,101.3,139,101.3L139,101.3z"/>
	<g>
		<g>
			<g>
				<g>
					<defs>
						<path id="SVGID_5_" d="M137.5,123.5c0,0-5.6,7.9,1.1,18.8c-12.5,0.2-16.6,0-16.6,0l-1.5-12.8l6.5-6l5.9-2.5h5.7L137.5,123.5z"
							/>
					</defs>
					<clipPath id="SVGID_6_">
						<use xlink:href="#SVGID_5_"  style="overflow:visible;"/>
					</clipPath>
					<path class="st14" d="M140.6,121.9H138c-8.4-0.3-15.1,7-15.1,14.8v5.1l32.8-0.3v-5.4C155.6,128.3,149,121.9,140.6,121.9z"/>
				</g>
			</g>
		</g>
	</g>
</g>
</svg>
