<?xml version="1.0" encoding="utf-8"?>
<!-- Generator: Adobe Illustrator 23.0.0, SVG Export Plug-In . SVG Version: 6.00 Build 0)  -->
<svg version="1.1" id="Layer_1" xmlns="http://www.w3.org/2000/svg" xmlns:xlink="http://www.w3.org/1999/xlink" x="0px" y="0px"
	 viewBox="0 0 185.4 165.6" style="enable-background:new 0 0 185.4 165.6;" xml:space="preserve">
<style type="text/css">
	.st0{fill:#DCF1FF;}
	.st1{fill:none;}
	.st2{fill:#FFFFFF;}
	.st3{fill:#515151;}
	.st4{fill:#F5F5F5;}
	.st5{fill:#374266;}
	.st6{fill:#F44336;}
	.st7{fill:#FFC107;}
	.st8{fill:#4CAF50;}
	.st9{fill:#2196F3;}
	.st10{fill:#10A4FF;}
	.st11{fill:#FC7A22;}
	.st12{fill:#FF830E;}
	.st13{enable-background:new    ;}
	.st14{fill:#F07C20;}
	.st15{fill:#67B458;}
	.st16{fill:#FAFAFA;}
</style>
<g>
	<g>
		<g>
			<circle class="st0" cx="84.9" cy="82.8" r="68.8"/>
		</g>
		<path class="st1" d="M84.9,14c-21.2,0-40.2,9.6-52.8,24.7h85.5c6.4,0,11.6,5.2,11.6,11.6v65c0,6.4-5.2,11.6-11.6,11.6H32.1
			c12.6,15.1,31.6,24.7,52.8,24.7c38,0,68.8-30.8,68.8-68.8S122.9,14,84.9,14z"/>
		<path class="st2" d="M127.1,115.3v-65c0-5.3-4.3-9.6-9.6-9.6h-87c-9,11.6-14.4,26.2-14.4,42.1s5.4,30.4,14.4,42.1h87.1
			C122.8,124.9,127.1,120.6,127.1,115.3z"/>
		<path class="st3" d="M129.1,115.3v-65c0-6.4-5.2-11.6-11.6-11.6H32.1c-0.5,0.7-1.1,1.3-1.6,2h87.1c5.3,0,9.6,4.3,9.6,9.6v65
			c0,5.3-4.3,9.6-9.6,9.6H30.5c0.5,0.7,1,1.3,1.6,2h85.5C123.9,126.9,129.1,121.7,129.1,115.3z"/>
		<path class="st1" d="M84.9,14c-31.3,0-57.6,20.8-66,49.4h48.7v43H20.2c9.6,26.4,34.9,45.2,64.7,45.2c38,0,68.8-30.8,68.8-68.8
			S122.9,14,84.9,14z"/>
		<path class="st4" d="M67.6,63.4H18.9c-1.8,6.2-2.8,12.7-2.8,19.4c0,8.3,1.5,16.2,4.2,23.6h47.3V63.4z"/>
		<path class="st3" d="M24.2,55.9h93.2V55H24.2V55.9z"/>
		<path class="st4" d="M67.6,108.6H21.1c1,2.1,2.1,4.1,3.3,6h43.2C67.6,114.6,67.6,108.6,67.6,108.6z"/>
		<rect id="Rectangle_1001" x="76.8" y="63.8" class="st4" width="40.6" height="26.8"/>
		<g id="Group_21200">
			<g id="Group_21178" transform="translate(1318.494 988.371)">
				<path id="Rectangle_1264" class="st5" d="M-1260.2-899.3h108c1.7,0,3,1.3,3,3v25c0,1.7-1.3,3-3,3h-108c-1.7,0-3-1.3-3-3v-25
					C-1263.2-897.9-1261.8-899.3-1260.2-899.3z"/>
			</g>
			<rect id="Rectangle_1107" x="87.3" y="106.1" class="st2" width="58" height="3"/>
			<rect id="Rectangle_1108" x="87.3" y="113.1" class="st2" width="46" height="3"/>
			<rect id="Rectangle_1106" x="87.3" y="93.1" class="st2" width="78" height="9"/>
			<g id="insert-picture-icon" transform="translate(1315 983.65)">
				<path id="Path_115353" class="st2" d="M-1233.9-890.5h-19c-1.5,0-2.8,1.2-2.8,2.8v17.5c0,1.5,1.2,2.8,2.8,2.8h19
					c1.5,0,2.8-1.2,2.8-2.8v-17.5C-1231.2-889.3-1232.4-890.5-1233.9-890.5z M-1239.8-886.4c1.5,0,2.7,1.2,2.7,2.7s-1.2,2.7-2.7,2.7
					s-2.7-1.2-2.7-2.7S-1241.3-886.4-1239.8-886.4L-1239.8-886.4L-1239.8-886.4z M-1234.8-870.1h-16.9c-0.4,0.1-0.8-0.2-0.9-0.6
					c0-0.2,0-0.4,0.1-0.6l4.6-9.1c0.1-0.4,0.6-0.6,1-0.5c0.2,0.1,0.3,0.2,0.4,0.4l4.6,6c0.4,0.5,1.1,0.6,1.6,0.3
					c0.1,0,0.1-0.1,0.2-0.2l1.1-1.1c0.4-0.4,1.1-0.5,1.5-0.1c0.1,0.1,0.1,0.1,0.2,0.2l2.9,4.2
					C-1233.8-870.6-1234.1-870.1-1234.8-870.1L-1234.8-870.1z"/>
			</g>
		</g>
		<g id="Group_21180">
			<path id="Path_112761" class="st6" d="M45.5,45.9h-4.9c-1.1,0-2,0.8-2,1.9c0,0.3,0.1,0.6,0.3,0.9l-2.5-3.9
				c1.9-2.2,5.1-2.6,7.5-0.9C44.6,44.3,45.1,45.1,45.5,45.9z"/>
			<path id="Path_112762" class="st7" d="M45.9,48.4c0,2.7-2.2,5-5,5c-0.2,0-0.4,0-0.6,0l2.2-4c0.5-0.9,0.2-2-0.7-2.5
				c-0.3-0.2-0.6-0.2-0.9-0.2h4.6C45.7,47.1,45.9,47.7,45.9,48.4z"/>
			<path id="Path_112763" class="st8" d="M41.9,49.3l-2.2,4l0,0c-2.7-0.3-4.6-2.8-4.3-5.5c0.1-0.9,0.5-1.7,1-2.4l2.3,3.9l0,0
				c0.5,0.9,1.6,1.2,2.5,0.7C41.5,49.8,41.7,49.6,41.9,49.3L41.9,49.3z"/>
			<path id="Path_112765" class="st9" d="M42.2,49c-0.5,0.9-1.6,1.2-2.5,0.7c-0.3-0.2-0.5-0.4-0.7-0.7l0,0c-0.5-0.9-0.2-2,0.7-2.5
				c0.3-0.2,0.6-0.2,0.9-0.2l0,0c0.3,0,0.6,0.1,0.9,0.2C42.4,46.9,42.7,48.1,42.2,49z"/>
		</g>
		<g>
			<g>
				<path class="st10" d="M72.5,42.8c2.9,0,5.2,2.3,5.2,5.2s-2.3,5.2-5.2,5.2c-2.9,0-5.2-2.3-5.2-5.2S69.6,42.8,72.5,42.8z"/>
				<path class="st11" d="M73.4,53.4C76,53,78,50.7,78,47.9V48c0.1-0.5,0.1-1,0-1.4c0,0.3-0.1,0.5-0.1,0.6c0,0,0-0.3-0.1-0.8
					c0-0.3-0.1-0.6-0.2-0.9c0,0.1,0,0.2,0,0.3c-0.4-1.1-1.4-2.4-3.8-2.4c0,0,0.9,0.1,1.2,0.7c0,0-0.4-0.1-0.7,0.1
					c0.4,0.1,0.7,0.3,1,0.5l0,0c0.1,0,0.1,0.1,0.2,0.1c0.5,0.4,1,0.9,1,1.6c-0.1-0.2-0.3-0.3-0.5-0.4c0.2,0.9,0.2,1.7,0.1,2.3
					c-0.1-0.4-0.2-0.6-0.3-0.7c0.1,1.2,0,2.1-0.6,2.7c0.1-0.3,0.1-0.7,0.1-0.9c-0.7,1-1.4,1.5-2.2,1.5c-0.3,0-0.6,0-0.9-0.1
					c-0.4-0.1-0.8-0.4-1.1-0.7c0.5,0,1,0,1.5-0.3l0.7-0.4l0,0c0.1,0,0.2,0,0.3,0c0.2,0,0.2-0.1,0.2-0.3c-0.1-0.1-0.2-0.2-0.4-0.3
					c-0.3-0.2-0.7-0.1-1.1,0.1c-0.4,0.2-0.7,0.2-1.1,0c-0.2-0.1-0.4-0.3-0.7-0.6l-0.1-0.1c0,0.3,0,0.7,0.1,1.1l0,0l0,0
					c-0.1-0.4-0.2-0.8-0.1-1.1l0,0c0-0.2,0.1-0.4,0.3-0.4h-0.1h0.1c0.2,0,0.5,0.1,0.8,0.2c0-0.3,0-0.6-0.2-0.9l0,0
					c0.3-0.3,0.5-0.4,0.7-0.6c0.1,0,0.1-0.1,0.2-0.2l0,0l0,0l0,0c0.1-0.1,0-0.2,0-0.3c-0.2,0-0.4,0-0.6,0l0,0
					c-0.1,0-0.2-0.1-0.3-0.2L71,45.5l-0.3-0.2l0,0l0,0l0,0l0,0l0,0c0-0.2,0.1-0.4,0.2-0.6l0,0c0.1-0.2,0.3-0.3,0.6-0.6
					c-0.6,0.1-1,0.3-1.5,0.7c-0.3-0.1-0.8-0.1-1.3,0.1h-0.1l0,0h0.1l0,0c-0.3-0.1-0.5-0.6-0.6-1.2c-0.4,0.4-0.6,1.1-0.6,2.1L67.4,46
					l0,0l0,0l0,0l0,0c-0.1,0.1-0.1,0.2-0.2,0.4c-0.1,0.3-0.2,0.5-0.2,0.7l0,0l0,0v0.1l0,0v0.1l0.3-0.2c-0.1,0.3-0.2,0.6-0.2,0.9v0.1
					L67,48c0,1.2,0.4,2.3,1,3.2l0,0l0,0c0.4,0.6,1,1.1,1.7,1.6c0.5,0.3,1,0.5,1.6,0.6h0.1c0.1,0,0.2,0,0.3,0.1c0.1,0,0.2,0,0.3,0
					h0.1h0.2h0.2h0.1h0.2c0.1,0,0.3,0,0.4,0C73.3,53.4,73.4,53.4,73.4,53.4z M76.9,46.7L76.9,46.7L76.9,46.7L76.9,46.7z"/>
			</g>
		</g>
		<g>
			<circle class="st12" cx="89.3" cy="48.3" r="5.4"/>
			<g class="st13">
				<path class="st2" d="M88,52.3L88,52.3c-1.2-0.3-1.7-1.6-1.4-2.6c0.2-0.5,0.5-0.9,1-1.2c0.3-0.2,0.6-0.4,0.9-0.6
					c0.4-0.3,0.8-0.7,0.9-1.2c0.2-0.6,0.1-1.2-0.3-1.7c-0.5-0.5-1.1-0.7-1.8-0.6c-0.9,0.1-1.6,0.6-2,1.3c0,0,0,0.1-0.1,0.1
					c0.2-0.1,0.4-0.2,0.6-0.2c0.5-0.1,0.9,0.3,1,0.7c0.1,0.3,0,0.7-0.2,0.9c-0.2,0.3-0.5,0.6-0.7,0.8c-0.6,0.6-0.8,1.4-0.7,2.2
					c0.1,0.7,0.5,1.3,1.1,1.7C86.8,52.2,87.4,52.3,88,52.3"/>
				<path class="st2" d="M89.5,47.7c0.3,0,0.6,0.1,1,0.1c0.4,0.1,0.9,0.3,1.3,0.6c0.4,0.2,0.8,0.3,1.2,0.2c0.1,0,0.2,0,0.2-0.1
					l0.1-0.1c0-0.1,0-0.2,0-0.3c0-0.3-0.1-0.7-0.3-1c-0.2-0.4-0.6-0.6-1-0.7c-0.1,0-0.1-0.1-0.1-0.1c0-0.1,0-0.2-0.1-0.3
					c-0.1-0.2-0.1-0.3-0.3-0.4c0,0,0,0.1-0.1,0.1c-0.2,0.3-0.3,0.6-0.3,0.9c0,0.1,0,0.2-0.1,0.2c-0.2,0.1-0.4,0.3-0.6,0.4
					C90.1,47.4,89.8,47.6,89.5,47.7"/>
				<path class="st2" d="M90.7,51.7c0.1-0.3,0.1-0.6,0.1-0.9c0-0.4-0.1-0.7-0.3-1.1c-0.4-0.7-1.1-1.1-1.9-1.1
					c-0.4,0-0.8,0.1-1.1,0.4c-0.2,0.1-0.3,0.3-0.4,0.5c0.8-0.9,2.1-0.6,2.6,0.2c0.3,0.5,0.4,1,0.2,1.5s-0.6,0.9-1.1,1.1
					c1,0,1.9,0,2.9-0.1C91.5,51.8,91.1,51.7,90.7,51.7"/>
				<path class="st2" d="M89.5,50.7c0-0.6-0.5-1.2-1.2-1.2c-0.6,0-1.2,0.5-1.2,1.2s0.5,1.2,1.2,1.2S89.5,51.4,89.5,50.7"/>
				<path class="st2" d="M93.3,49.7c0-0.2-0.1-0.3-0.2-0.4c-0.2-0.1-0.3-0.1-0.5-0.2c-0.3,0-0.7-0.1-1-0.3c-0.3-0.1-0.5-0.3-0.8-0.4
					c-0.4-0.2-0.9-0.3-1.3-0.3c-0.3,0-0.6,0-0.9,0.1h-0.1h0.1c0.4,0,0.7,0,1,0.2c0.7,0.3,1.2,0.7,1.5,1.4c0,0.1,0.1,0.1,0.1,0.1
					c0.2,0,0.3,0,0.5,0s0.4-0.1,0.6-0.2c0.2-0.1,0.4-0.2,0.7-0.1C93.1,49.6,93.2,49.6,93.3,49.7"/>
				<path class="st2" d="M88,52.3c-0.6,0-1.2-0.1-1.7-0.4c-0.6-0.4-1-1-1.1-1.7c-0.1-0.9,0.2-1.6,0.7-2.2c0.2-0.3,0.5-0.6,0.7-0.8
					c0.2-0.3,0.3-0.6,0.2-0.9c-0.1-0.5-0.5-0.8-1-0.7c-0.2,0-0.4,0.1-0.6,0.2c0,0,0-0.1,0.1-0.1c0.5-0.7,1.2-1.2,2-1.3
					c0.7-0.1,1.3,0.1,1.8,0.6c0.4,0.5,0.5,1.1,0.3,1.7c-0.2,0.5-0.5,0.9-0.9,1.2c-0.3,0.2-0.6,0.4-0.9,0.6c-0.5,0.3-0.8,0.7-1,1.2
					C86.3,50.7,86.8,52,88,52.3L88,52.3"/>
				<path class="st2" d="M89.5,47.7c0.3-0.1,0.6-0.3,0.9-0.4c0.2-0.1,0.4-0.3,0.6-0.4c0.1,0,0.1-0.1,0.1-0.2c0-0.3,0.1-0.6,0.3-0.9
					c0,0,0,0,0.1-0.1c0.1,0.1,0.2,0.3,0.3,0.4c0,0.1,0.1,0.2,0.1,0.3s0,0.1,0.1,0.1c0.4,0.1,0.7,0.4,1,0.7c0.2,0.3,0.3,0.6,0.3,1
					c0,0.1,0,0.2,0,0.3c0,0,0,0.1-0.1,0.1c-0.1,0-0.2,0.1-0.2,0.1c-0.4,0.1-0.8,0-1.2-0.2s-0.8-0.4-1.3-0.6
					C90.2,47.8,89.9,47.7,89.5,47.7"/>
				<path class="st2" d="M90.7,51.7c0.5,0,0.9,0.1,1.1,0.6c-1,0.1-1.9,0.1-2.9,0.1c0.5-0.2,0.9-0.5,1.1-1.1c0.2-0.5,0.1-1-0.2-1.5
					c-0.5-0.8-1.8-1-2.6-0.2c0.1-0.2,0.2-0.4,0.4-0.5c0.3-0.3,0.7-0.4,1.1-0.4c0.9,0,1.5,0.4,1.9,1.1c0.2,0.3,0.3,0.7,0.3,1.1
					C90.8,51.1,90.8,51.4,90.7,51.7"/>
				<path class="st2" d="M89.5,50.7c0,0.6-0.5,1.2-1.2,1.2s-1.2-0.5-1.2-1.2c0-0.6,0.5-1.2,1.2-1.2C89,49.6,89.5,50.1,89.5,50.7
					 M88.4,51.3c0.3,0,0.5-0.2,0.5-0.5s-0.2-0.5-0.5-0.5s-0.5,0.2-0.5,0.5C87.8,51,88.1,51.3,88.4,51.3"/>
				<path class="st2" d="M93.3,49.7c-0.1,0-0.2,0-0.3-0.1c-0.2,0-0.5,0-0.7,0.1s-0.4,0.2-0.6,0.2s-0.3,0-0.5,0
					c-0.1,0-0.1-0.1-0.1-0.1c-0.4-0.6-0.9-1.1-1.5-1.4c-0.3-0.1-0.7-0.2-1-0.2h-0.1h0.1c0.3-0.1,0.6-0.1,0.9-0.1
					c0.5,0,0.9,0.1,1.3,0.3c0.3,0.1,0.5,0.3,0.8,0.4c0.3,0.2,0.6,0.2,1,0.3c0.2,0,0.4,0,0.5,0.2C93.2,49.4,93.3,49.5,93.3,49.7"/>
				<path class="st2" d="M88.4,51.3c-0.3,0-0.5-0.2-0.5-0.5s0.2-0.5,0.5-0.5s0.5,0.2,0.5,0.5S88.7,51.3,88.4,51.3"/>
			</g>
		</g>
		<g>
			<g>
				<path class="st14" d="M110.3,45.5c0.3,0,0.5,0.2,0.6,0.4c0.1,0.3-0.1,0.6-0.4,0.7c-0.2,0.1-0.4,0.1-0.5,0.2
					c-0.4,0.1-0.8,0.2-1.1,0.4c-0.1,0-0.2,0.1-0.3,0.1c-0.1,0-0.2,0-0.2-0.1c-0.1-0.1,0-0.2,0-0.3c0.1-0.1,0.1-0.1,0.2-0.2
					c0.2-0.2,0.5-0.4,0.7-0.6c0.2-0.2,0.5-0.4,0.7-0.5C110,45.5,110.1,45.5,110.3,45.5z"/>
				<path class="st14" d="M107,42.9c0.3,0,0.6,0.3,0.6,0.5c0,0.1,0,0.2-0.1,0.3c-0.2,0.4-0.3,0.8-0.5,1.2c-0.1,0.2-0.2,0.5-0.3,0.7
					c0,0.1-0.1,0.1-0.2,0.1c-0.1,0-0.2,0-0.2-0.1s0-0.1,0-0.2l0,0c0-0.2,0-0.4,0-0.6c0-0.3,0-0.6,0-0.9c0-0.1,0-0.2,0-0.3
					c0-0.3,0.2-0.5,0.5-0.6C106.9,42.9,106.9,42.9,107,42.9z"/>
			</g>
			<path class="st15" d="M111.3,47.7c0-0.2-0.2-0.3-0.3-0.3l0,0l-2.6,0.5l0,0c0,0.1,0,0.2,0,0.2c0,1.3-1.1,2.4-2.4,2.5
				c-1.4,0-2.6-1.1-2.6-2.5c0-1.3,1-2.3,2.2-2.4l0,0l-0.2-2.6c0-0.2-0.2-0.3-0.3-0.3c-2.6,0.4-4.6,2.7-4.6,5.3
				c0,2.9,2.4,5.4,5.4,5.4s5.4-2.4,5.4-5.4C111.3,48,111.3,47.9,111.3,47.7z"/>
			<circle class="st15" cx="105.9" cy="48.1" r="1.7"/>
			<path class="st15" d="M110.7,42.8h-1.2c0,0-0.4,0-0.6,0.2c-0.1,0.2-1.5,2.8-1.5,2.8c-0.1,0.1-0.1,0.3,0,0.4l0,0
				c0.1,0.1,0.3,0.1,0.4,0l3-2.9C110.9,43.3,111.2,43,110.7,42.8z"/>
		</g>
	</g>
	<g>
		<circle class="st9" cx="56.1" cy="48.1" r="5.3"/>
		<polygon class="st16" points="55.4,47.4 52.8,51.4 56.7,48.8 		"/>
		<polygon class="st6" points="55.4,47.4 56.7,48.8 59.4,44.8 		"/>
	</g>
</g>
</svg>
