<?xml version="1.0" encoding="utf-8"?>
<!-- Generator: Adobe Illustrator 23.0.0, SVG Export Plug-In . SVG Version: 6.00 Build 0)  -->
<svg version="1.1" id="Layer_1" xmlns="http://www.w3.org/2000/svg" xmlns:xlink="http://www.w3.org/1999/xlink" x="0px" y="0px"
	 viewBox="0 0 185.4 165.6" style="enable-background:new 0 0 185.4 165.6;" xml:space="preserve">
<style type="text/css">
	.st0{fill:#DCF1FF;}
	.st1{fill:none;}
	.st2{fill:#FFFFFF;}
	.st3{fill:#515151;}
	.st4{fill:#F5F5F5;}
	.st5{fill:#374266;}
	.st6{fill:#12BFF1;}
	.st7{fill:#50758D;}
	.st8{fill:#FFE7C9;}
	.st9{fill:#2B597F;}
	.st10{fill:#FAEA07;}
	.st11{fill:#FFB507;}
	.st12{fill:#FB6D00;}
</style>
<g>
	<g>
		<circle class="st0" cx="80" cy="82.8" r="68.8"/>
	</g>
	<g>
	</g>
	<path class="st1" d="M80,14c-21.2,0-40.2,9.6-52.8,24.7h85.5c6.4,0,11.6,5.2,11.6,11.6v65c0,6.4-5.2,11.6-11.6,11.6H27.1
		C39.7,142,58.7,151.6,80,151.6c38,0,68.8-30.8,68.8-68.8S118,14,80,14z"/>
	<path class="st2" d="M122.2,115.3v-65c0-5.3-4.3-9.6-9.6-9.6H25.5c-9,11.6-14.4,26.2-14.4,42.1s5.4,30.4,14.4,42.1h87.1
		C117.9,124.9,122.2,120.6,122.2,115.3z"/>
	<path class="st3" d="M124.2,115.3v-65c0-6.4-5.2-11.6-11.6-11.6H27.1c-0.5,0.7-1.1,1.3-1.6,2h87.1c5.3,0,9.6,4.3,9.6,9.6v65
		c0,5.3-4.3,9.6-9.6,9.6H25.5c0.5,0.7,1,1.3,1.6,2h85.5C119,126.9,124.2,121.7,124.2,115.3z"/>
	<path class="st1" d="M80,14c-31.3,0-57.6,20.8-66,49.4h48.7v43H15.3c9.6,26.4,34.9,45.2,64.7,45.2c38,0,68.8-30.8,68.8-68.8
		S118,14,80,14z"/>
	<path class="st4" d="M62.7,63.4H14c-1.8,6.2-2.8,12.7-2.8,19.4c0,8.3,1.5,16.2,4.2,23.6h47.3C62.7,106.4,62.7,63.4,62.7,63.4z"/>
	<path class="st3" d="M19.3,55.9h93.2V55H19.3V55.9z"/>
	<rect x="27.1" y="45.1" class="st3" width="5" height="6"/>
	<rect x="34.1" y="45.1" class="st3" width="5.3" height="6"/>
	<rect x="41.4" y="45.1" class="st3" width="5.7" height="6"/>
	<path class="st4" d="M62.7,108.6H16.2c1,2.1,2.1,4.1,3.3,6h43.2V108.6z"/>
	<rect id="Rectangle_1001" x="72.9" y="63.8" class="st4" width="39.6" height="11"/>
	<rect id="Rectangle_1002" x="85.9" y="77.4" class="st4" width="26.6" height="5.9"/>
	<rect id="Rectangle_1003" x="72.9" y="63.8" class="st4" width="39.6" height="50.8"/>
	<path id="Path_112684" class="st5" d="M108.5,102.1l-1.8-22.4c-0.1-1.4-1.3-2.6-2.8-2.6h-3.5v5.2c0,0.6-0.5,1.2-1.2,1.2
		S98,83,98,82.3v-5.2H87.4v5.2c0,0.6-0.5,1.2-1.1,1.2s-1.2-0.5-1.2-1.1c0,0,0,0,0-0.1v-5.2h-3.5c-1.5,0-2.7,1.1-2.8,2.6L77,102.1
		c-0.3,3.6,2.4,6.7,6,7c0.2,0,0.3,0,0.5,0H102c3.6,0,6.5-2.9,6.5-6.5C108.5,102.5,108.5,102.3,108.5,102.1L108.5,102.1z M98,90.7
		l-6,6c-0.5,0.5-1.2,0.5-1.6,0l0,0l-2.8-2.8c-0.4-0.5-0.4-1.2,0-1.6s1.2-0.4,1.6,0l2,2l5.2-5.2c0.5-0.5,1.2-0.5,1.6,0
		S98.4,90.3,98,90.7L98,90.7L98,90.7z"/>
	<path id="Path_112685" class="st5" d="M92.7,69.3c-4.2,0-7.7,3.4-7.7,7.7v0.2h2.3V77c0-3,2.4-5.4,5.4-5.4s5.4,2.4,5.4,5.4v0.2h2.3
		V77C100.4,72.8,97,69.3,92.7,69.3z"/>
	<circle id="Ellipse_469" class="st6" cx="140.3" cy="51" r="34"/>
	<path id="Path_113201" class="st7" d="M147.8,75.3v1.6c0,0.1,0,0.3,0,0.4c-0.2,1.9-1.8,3.3-3.6,3.3h-5.6c-1.9,0-3.4-1.4-3.6-3.3
		c0-0.1,0-0.3,0-0.4v-1.6c0.5,0.2,1,0.3,1.6,0.3h9.8C146.8,75.6,147.3,75.5,147.8,75.3z"/>
	<path id="Path_113202" class="st8" d="M141.2,27c-0.5,0-0.9-0.4-0.9-0.9l0,0v-6.2c0-0.5,0.4-0.9,0.9-0.9s0.9,0.4,0.9,0.9v6.2
		C142.1,26.6,141.7,27,141.2,27z"/>
	<path id="Path_113203" class="st8" d="M124.7,33.8c-0.2,0-0.5-0.1-0.6-0.3l-4.4-4.4c-0.4-0.4-0.4-0.9,0-1.3s0.9-0.4,1.3,0l4.4,4.4
		c0.4,0.4,0.4,0.9,0,1.3C125.2,33.7,124.9,33.8,124.7,33.8L124.7,33.8z"/>
	<path id="Path_113204" class="st8" d="M117.9,50.3h-6.2c-0.5,0-0.9-0.4-0.9-0.9s0.4-0.9,0.9-0.9h6.2c0.5,0,0.9,0.4,0.9,0.9
		C118.8,49.9,118.4,50.3,117.9,50.3z"/>
	<path id="Path_113205" class="st8" d="M120.3,71.1c-0.5,0-0.9-0.4-0.9-0.9c0-0.2,0.1-0.5,0.3-0.6l4.4-4.4c0.4-0.4,0.9-0.4,1.3,0
		s0.4,0.9,0,1.3l0,0l-4.4,4.4C120.8,71,120.6,71.1,120.3,71.1z"/>
	<path id="Path_113206" class="st8" d="M162,71.1c-0.2,0-0.5-0.1-0.6-0.3l-4.4-4.4c-0.4-0.4-0.4-0.9,0-1.3s0.9-0.4,1.3,0l4.4,4.4
		c0.4,0.4,0.4,0.9,0,1.3C162.5,71,162.2,71.1,162,71.1L162,71.1z"/>
	<path id="Path_113207" class="st8" d="M170.6,50.3h-6.2c-0.5,0-0.9-0.4-0.9-0.9s0.4-0.9,0.9-0.9h6.2c0.5,0,0.9,0.4,0.9,0.9
		C171.5,49.9,171.1,50.3,170.6,50.3L170.6,50.3z"/>
	<path id="Path_113208" class="st8" d="M157.6,33.8c-0.5,0-0.9-0.4-0.9-0.9c0-0.2,0.1-0.5,0.3-0.6l4.4-4.4c0.4-0.4,0.9-0.4,1.3,0
		s0.4,0.9,0,1.3l0,0l-4.4,4.4C158.1,33.7,157.9,33.8,157.6,33.8z"/>
	<path id="Path_113209" class="st9" d="M141.3,74.4c0,0-6,1.1-6.5,0.9v1.6c0,0.1,0,0.3,0,0.4c0.2,1.9,1.8,3.3,3.6,3.3h1.6
		c-1.6,0-2.9-1-3.5-2.4c-0.1-0.2,0-0.4,0.2-0.5h0.1h9.2c0.5,0,1.1-0.1,1.6-0.3c0-0.1,0-0.3,0-0.4v-1.6
		C147.3,75.5,141.3,74.4,141.3,74.4z"/>
	<path id="Path_113210" class="st7" d="M150.1,71.7c0,2.2-1.7,3.9-3.9,3.9l0,0h-9.8c-2.2,0-3.9-1.7-3.9-3.9l0,0c0,0-0.1-5.7-0.1-5.9
		l0,0l8.9-1.2l8.8,1.2V71.7z"/>
	<path id="Path_113211" class="st9" d="M138.5,75.6h-2.1c-2.2,0-3.9-1.7-3.9-3.9l0,0c0,0-0.1-5.7-0.1-5.9l0,0h2.1l0,0
		c0,0.1,0.1,5.9,0.1,5.9C134.6,73.9,136.4,75.6,138.5,75.6L138.5,75.6z"/>
	<path id="Path_113212" class="st9" d="M150.1,71.6H147c-0.5,0-0.9-0.4-0.9-0.9s0.4-0.9,0.9-0.9h3.1v0.9V71.6z"/>
	<path id="Path_113213" class="st9" d="M143.7,70.7c0,0.5-0.4,0.9-0.9,0.9h-10.2v-1.8h10.2C143.2,69.8,143.7,70.2,143.7,70.7
		L143.7,70.7z"/>
	<path id="Path_113214" class="st10" d="M141.2,30L141.2,30c-9.4-0.1-17.4,8.1-17.2,17.5c0,4.6,1.8,9,5,12.3
		c1.8,1.9,3.4,3.6,3.5,6.1h17.6c0.1-2.6,1.6-4.3,3.4-6.2c3.1-3.3,4.9-7.6,4.9-12.2C158.4,37.9,150.7,30.1,141.2,30z"/>
	<path id="Path_113215" class="st11" d="M150.1,65.9L150.1,65.9h-17.6c-0.2-2.5-1.7-4.2-3.5-6.1c-3.2-3.3-5-7.7-5-12.3
		c-0.2-9.4,7.8-17.6,17.2-17.5c0.3,0,0.6,0,0.9,0c-9.7,0.8-16.8,9.3-16,19c0.3,4,2.1,7.8,4.9,10.7c1.8,1.9,3.4,3.6,3.5,6.1
		L150.1,65.9z"/>
	<path id="Path_113216" class="st12" d="M141.6,56.2c-0.4,0.5-0.9,0.8-1.5,0.8H140c-0.6,0-1.1-0.2-1.5-0.7l-5.7-6.4
		c-0.7-0.8-0.7-2.1,0.1-2.8s2.1-0.7,2.8,0.1l4.1,4.6l6.6-8.5c0.7-0.9,2-1,2.8-0.4c0.9,0.7,1,2,0.4,2.8L141.6,56.2z"/>
</g>
</svg>
